<svg version="1.2" xmlns="http://www.w3.org/2000/svg" viewBox="0 0 24 24" width="24" height="24">
	<title>circle-svg</title>
	<defs>
		<clipPath clipPathUnits="userSpaceOnUse" id="cp1">
			<path d="m15.29 3.79c0.67-0.55 1.52-0.83 2.39-0.79 0.86 0.05 1.68 0.41 2.29 1.03 0.62 0.61 0.98 1.43 1.03 2.29 0.04 0.87-0.24 1.72-0.79 2.39q0.2 0.45 0.35 0.91 0.14 0.47 0.24 0.94 0.1 0.48 0.15 0.97 0.05 0.48 0.05 0.97c0 3.84-2.31 7.31-5.86 8.78-3.55 1.47-7.64 0.65-10.36-2.06-2.71-2.72-3.53-6.81-2.06-10.36 1.47-3.55 4.94-5.86 8.78-5.86 1.35 0 2.63 0.28 3.79 0.79zm-1.14 1.69c-3.31-1.25-7.03-0.02-8.95 2.95-1.92 2.97-1.5 6.87 1 9.37 2.5 2.5 6.4 2.92 9.37 1 2.97-1.92 4.2-5.64 2.95-8.95-0.61 0.18-1.25 0.2-1.87 0.05-0.62-0.16-1.18-0.47-1.63-0.92-0.45-0.45-0.76-1.01-0.92-1.63-0.15-0.62-0.13-1.26 0.05-1.87zm-2.65 8.52c-0.4 0-0.78-0.16-1.06-0.44-0.28-0.28-0.44-0.66-0.44-1.06 0-0.4 0.16-0.78 0.44-1.06 0.28-0.28 0.66-0.44 1.06-0.44 0.4 0 0.78 0.16 1.06 0.44 0.28 0.28 0.44 0.66 0.44 1.06 0 0.4-0.16 0.78-0.44 1.06-0.28 0.28-0.66 0.44-1.06 0.44zm6-6c0.4 0 0.78-0.16 1.06-0.44 0.28-0.28 0.44-0.66 0.44-1.06 0-0.4-0.16-0.78-0.44-1.06-0.28-0.28-0.66-0.44-1.06-0.44-0.4 0-0.78 0.16-1.06 0.44-0.28 0.28-0.44 0.66-0.44 1.06 0 0.4 0.16 0.78 0.44 1.06 0.28 0.28 0.66 0.44 1.06 0.44z"/>
		</clipPath>
	</defs>
	<style>
		.s0 { fill: #ffffff } 
	</style>
	<g id="Layer">
		<path id="a" fill-rule="evenodd" class="s0" d="m15.3 3.8c0.7-0.6 1.5-0.8 2.4-0.8 0.8 0 1.7 0.4 2.3 1 0.6 0.6 1 1.5 1 2.3 0 0.9-0.2 1.7-0.8 2.4q0.2 0.5 0.4 0.9 0.1 0.5 0.2 1 0.1 0.4 0.2 0.9 0 0.5 0 1c0 3.8-2.3 7.3-5.9 8.8-3.5 1.4-7.6 0.6-10.3-2.1-2.7-2.7-3.5-6.8-2.1-10.3 1.5-3.6 5-5.9 8.8-5.9 1.3 0 2.6 0.3 3.8 0.8zm-1.2 1.7c-3.3-1.3-7 0-8.9 2.9-1.9 3-1.5 6.9 1 9.4 2.5 2.5 6.4 2.9 9.4 1 2.9-1.9 4.2-5.6 2.9-8.9-0.6 0.1-1.2 0.2-1.9 0-0.6-0.2-1.1-0.5-1.6-0.9-0.4-0.5-0.7-1-0.9-1.6-0.2-0.7-0.1-1.3 0-1.9zm-2.6 8.5c-0.4 0-0.8-0.2-1.1-0.4-0.2-0.3-0.4-0.7-0.4-1.1 0-0.4 0.2-0.8 0.4-1.1 0.3-0.2 0.7-0.4 1.1-0.4 0.4 0 0.8 0.2 1.1 0.4 0.2 0.3 0.4 0.7 0.4 1.1 0 0.4-0.2 0.8-0.4 1.1-0.3 0.2-0.7 0.4-1.1 0.4zm6-6c0.4 0 0.8-0.2 1.1-0.4 0.2-0.3 0.4-0.7 0.4-1.1 0-0.4-0.2-0.8-0.4-1.1-0.3-0.2-0.7-0.4-1.1-0.4-0.4 0-0.8 0.2-1.1 0.4-0.2 0.3-0.4 0.7-0.4 1.1 0 0.4 0.2 0.8 0.4 1.1 0.3 0.2 0.7 0.4 1.1 0.4z"/>
		<g id="Clip-Path" clip-path="url(#cp1)">
			<g id="Layer">
				<path id="Layer" fill-rule="evenodd" class="s0" d="m-3-3h30v30h-30z"/>
			</g>
		</g>
	</g>
</svg>