<svg version="1.2" xmlns="http://www.w3.org/2000/svg" viewBox="0 0 24 24" width="24" height="24">
	<title>delete-svg</title>
	<style>
		.s0 { fill: #ffffff } 
	</style>
	<path id="a" fill-rule="evenodd" class="s0" d="m13.5 20q0 0 0 0zm9.5 0v2h-16.2l-4.7-4.1q-0.3-0.3-0.5-0.6-0.2-0.4-0.2-0.8 0-0.4 0.1-0.8 0.1-0.3 0.4-0.6l11.1-12.9q0.3-0.3 0.7-0.4 0.3-0.2 0.7-0.2 0.4-0.1 0.8 0.1 0.4 0.1 0.7 0.3l6 5.3q0.3 0.3 0.5 0.6 0.2 0.4 0.2 0.8 0 0.4-0.1 0.7-0.1 0.4-0.4 0.7c0 0-8.6 9.9-8.6 9.9zm-8.2-4.5l-6.1-5.1-5.3 6 4.2 3.6h3.3z"/>
</svg>