<svg version="1.2" xmlns="http://www.w3.org/2000/svg" viewBox="0 0 29 29" width="29" height="29">
	<title>full_screen-svg</title>
	<style>
		.s0 { fill: #ffffff } 
	</style>
	<path id="Layer" fill-rule="evenodd" class="s0" d="m24 16v5.5c0 1.8-0.8 2.5-2.5 2.5h-5.5v-1l3-1.5-4-5.5 1-1 5.5 4 1.5-3zm-18 0l1.5 3 5.5-4 1 1-4 5.5 3 1.5v1h-5.5c-1.8 0-2.5-0.8-2.5-2.5v-5.5zm7-11v1l-3 1.5 4 5.5-1 1-5.5-4-1.5 3h-1v-5.5c0-1.8 0.8-2.5 2.5-2.5zm11 8h-1l-1.5-3-5.5 4-1-1 4-5.5-3-1.5v-1h5.5c1.8 0 2.5 0.8 2.5 2.5z"/>
</svg>