<svg version="1.2" xmlns="http://www.w3.org/2000/svg" viewBox="0 0 24 24" width="24" height="24">
	<title>rectangle-svg</title>
	<defs>
		<clipPath clipPathUnits="userSpaceOnUse" id="cp1">
			<path d="m16.42 6.16c-0.73-1.34-0.5-3 0.57-4.1 1.06-1.09 2.72-1.37 4.08-0.69 1.37 0.69 2.13 2.18 1.88 3.69-0.24 1.51-1.44 2.69-2.95 2.9v8.07c1.31 0.19 2.4 1.11 2.82 2.37 0.42 1.25 0.09 2.64-0.85 3.57-0.93 0.94-2.32 1.27-3.57 0.85-1.26-0.42-2.18-1.51-2.37-2.82h-8.07c-0.21 1.51-1.39 2.71-2.9 2.95-1.51 0.25-3-0.51-3.69-1.88-0.68-1.36-0.4-3.02 0.69-4.08 1.1-1.07 2.76-1.3 4.1-0.57 0 0 10.26-10.25 10.26-10.26zm1.42 1.42l-10.26 10.25q0.04 0.09 0.08 0.17h8.68q0.13-0.27 0.3-0.52 0.17-0.24 0.39-0.45 0.21-0.22 0.45-0.39 0.25-0.17 0.52-0.3v-8.68q-0.02-0.01-0.04-0.02-0.02-0.01-0.04-0.02-0.02-0.01-0.04-0.02-0.02-0.01-0.04-0.02zm1.66-1.58c0.4 0 0.78-0.16 1.06-0.44 0.28-0.28 0.44-0.66 0.44-1.06 0-0.4-0.16-0.78-0.44-1.06-0.28-0.28-0.66-0.44-1.06-0.44-0.4 0-0.78 0.16-1.06 0.44-0.28 0.28-0.44 0.66-0.44 1.06 0 0.4 0.16 0.78 0.44 1.06 0.28 0.28 0.66 0.44 1.06 0.44zm0 15c0.4 0 0.78-0.16 1.06-0.44 0.28-0.28 0.44-0.66 0.44-1.06 0-0.4-0.16-0.78-0.44-1.06-0.28-0.28-0.66-0.44-1.06-0.44-0.4 0-0.78 0.16-1.06 0.44-0.28 0.28-0.44 0.66-0.44 1.06 0 0.4 0.16 0.78 0.44 1.06 0.28 0.28 0.66 0.44 1.06 0.44zm-15 0c0.4 0 0.78-0.16 1.06-0.44 0.28-0.28 0.44-0.66 0.44-1.06 0-0.4-0.16-0.78-0.44-1.06-0.28-0.28-0.66-0.44-1.06-0.44-0.4 0-0.78 0.16-1.06 0.44-0.28 0.28-0.44 0.66-0.44 1.06 0 0.4 0.16 0.78 0.44 1.06 0.28 0.28 0.66 0.44 1.06 0.44z"/>
		</clipPath>
	</defs>
	<style>
		.s0 { fill: #ffffff } 
	</style>
	<g id="Layer">
		<path id="a" fill-rule="evenodd" class="s0" d="m16.4 6.2c-0.7-1.4-0.5-3 0.6-4.1 1.1-1.1 2.7-1.4 4.1-0.7 1.3 0.7 2.1 2.2 1.9 3.7-0.3 1.5-1.5 2.6-3 2.9v8c1.3 0.2 2.4 1.1 2.8 2.4 0.4 1.3 0.1 2.6-0.8 3.6-1 0.9-2.3 1.2-3.6 0.8-1.3-0.4-2.2-1.5-2.4-2.8h-8c-0.3 1.5-1.4 2.7-2.9 3-1.5 0.2-3-0.6-3.7-1.9-0.7-1.4-0.4-3 0.7-4.1 1.1-1.1 2.7-1.3 4.1-0.6 0 0 10.2-10.2 10.2-10.2zm1.4 1.4l-10.2 10.2q0 0.1 0.1 0.2h8.6q0.2-0.3 0.3-0.5 0.2-0.3 0.4-0.5 0.2-0.2 0.5-0.4 0.2-0.1 0.5-0.3v-8.6q0 0 0-0.1-0.1 0-0.1 0 0 0 0 0 0 0-0.1 0zm1.7-1.6c0.4 0 0.8-0.2 1.1-0.4 0.2-0.3 0.4-0.7 0.4-1.1 0-0.4-0.2-0.8-0.4-1.1-0.3-0.2-0.7-0.4-1.1-0.4-0.4 0-0.8 0.2-1.1 0.4-0.2 0.3-0.4 0.7-0.4 1.1 0 0.4 0.2 0.8 0.4 1.1 0.3 0.2 0.7 0.4 1.1 0.4zm0 15c0.4 0 0.8-0.2 1.1-0.4 0.2-0.3 0.4-0.7 0.4-1.1 0-0.4-0.2-0.8-0.4-1.1-0.3-0.2-0.7-0.4-1.1-0.4-0.4 0-0.8 0.2-1.1 0.4-0.2 0.3-0.4 0.7-0.4 1.1 0 0.4 0.2 0.8 0.4 1.1 0.3 0.2 0.7 0.4 1.1 0.4zm-15 0c0.4 0 0.8-0.2 1.1-0.4 0.2-0.3 0.4-0.7 0.4-1.1 0-0.4-0.2-0.8-0.4-1.1-0.3-0.2-0.7-0.4-1.1-0.4-0.4 0-0.8 0.2-1.1 0.4-0.2 0.3-0.4 0.7-0.4 1.1 0 0.4 0.2 0.8 0.4 1.1 0.3 0.2 0.7 0.4 1.1 0.4z"/>
		<g id="Clip-Path" clip-path="url(#cp1)">
			<g id="Layer">
				<path id="Layer" fill-rule="evenodd" class="s0" d="m-3-3h30v30h-30z"/>
			</g>
		</g>
	</g>
</svg>