<svg xmlns="http://www.w3.org/2000/svg" xmlns:xlink="http://www.w3.org/1999/xlink" version="1.1" width="1000" height="1000" viewBox="0 0 1000 1000" xml:space="preserve">
<desc>Created with Fabric.js 3.5.0</desc>
<defs>
</defs>
<rect x="0" y="0" width="100%" height="100%" fill="rgba(255,255,255,0)"/>
<g transform="matrix(1.2318 0 0 1.2318 499.9903 499.9887)" id="20991">
<g style="" vector-effect="non-scaling-stroke">
		<g transform="matrix(1 0 0 1 0 188.53)">
<path style="stroke: none; stroke-width: 1; stroke-dasharray: none; stroke-linecap: butt; stroke-dashoffset: 0; stroke-linejoin: miter; stroke-miterlimit: 4; is-custom-font: none; font-file-url: none; fill: rgb(197,241,239); fill-rule: nonzero; opacity: 1;" transform=" translate(-316.5, -557.53)" d="M 316.5 737.897 C 491.298 737.897 633 657.144 633 557.53 C 633 457.916 491.298 377.163 316.5 377.163 C 141.702 377.163 0 457.916 0 557.53 C 0 657.144 141.702 737.897 316.5 737.897 Z" stroke-linecap="round"/>
</g>
		<g transform="matrix(1 0 0 1 38.4765 214.6015)">
<path style="stroke: none; stroke-width: 1; stroke-dasharray: none; stroke-linecap: butt; stroke-dashoffset: 0; stroke-linejoin: miter; stroke-miterlimit: 4; is-custom-font: none; font-file-url: none; fill: rgb(135,218,213); fill-rule: nonzero; opacity: 1;" transform=" translate(-354.9765, -583.6015)" d="M 448.208 671.253 L 211.953 534.407 C 209.875 533.206 208.149 531.477 206.948 529.393 C 205.748 527.31 205.116 524.946 205.116 522.54 C 205.116 520.134 205.748 517.77 206.948 515.687 C 208.149 513.604 209.875 511.874 211.953 510.673 L 235.259 495.93 C 239.282 493.605 243.843 492.382 248.486 492.382 C 253.129 492.382 257.69 493.605 261.713 495.93 L 498 632.792 C 500.078 633.993 501.804 635.723 503.004 637.806 C 504.205 639.889 504.837 642.253 504.837 644.659 C 504.837 647.065 504.205 649.429 503.004 651.513 C 501.804 653.596 500.078 655.325 498 656.526 L 474.694 671.253 C 470.669 673.59 466.101 674.821 461.451 674.821 C 456.801 674.821 452.233 673.59 448.208 671.253 Z" stroke-linecap="round"/>
</g>
		<g transform="matrix(1 0 0 1 -227.5165 147.9575)">
<path style="stroke: none; stroke-width: 1; stroke-dasharray: none; stroke-linecap: butt; stroke-dashoffset: 0; stroke-linejoin: miter; stroke-miterlimit: 4; is-custom-font: none; font-file-url: none; fill: rgb(135,218,213); fill-rule: nonzero; opacity: 1;" transform=" translate(-88.9835, -516.9575)" d="M 88.9835 546.492 C 117.299 546.492 140.253 533.269 140.253 516.958 C 140.253 500.646 117.299 487.423 88.9835 487.423 C 60.6681 487.423 37.7139 500.646 37.7139 516.958 C 37.7139 533.269 60.6681 546.492 88.9835 546.492 Z" stroke-linecap="round"/>
</g>
		<g transform="matrix(1 0 0 1 228.1115 128.9569)">
<path style="stroke: none; stroke-width: 1; stroke-dasharray: none; stroke-linecap: butt; stroke-dashoffset: 0; stroke-linejoin: miter; stroke-miterlimit: 4; is-custom-font: none; font-file-url: none; fill: rgb(32,178,170); fill-rule: nonzero; opacity: 1;" transform=" translate(-544.6115, -497.9568)" d="M 531.986 553.259 L 554.473 566.23 C 554.473 566.23 542.988 530.024 549.108 493.529 C 551.421 479.736 556.384 472.888 558.119 469.198 C 559.853 465.508 573.297 442.709 561.331 432.268 C 549.365 421.826 521.53 442.821 523.04 499.007 C 523.726 517.397 526.732 535.626 531.986 553.259 Z" stroke-linecap="round"/>
</g>
		<g transform="matrix(1 0 0 1 228.1115 128.9569)">
<path style="stroke: none; stroke-width: 1; stroke-dasharray: none; stroke-linecap: butt; stroke-dashoffset: 0; stroke-linejoin: miter; stroke-miterlimit: 4; is-custom-font: none; font-file-url: none; fill: rgb(0,0,0); fill-rule: nonzero; opacity: 0.5;" transform=" translate(-544.6115, -497.9568)" d="M 531.986 553.259 L 554.473 566.23 C 554.473 566.23 542.988 530.024 549.108 493.529 C 551.421 479.736 556.384 472.888 558.119 469.198 C 559.853 465.508 573.297 442.709 561.331 432.268 C 549.365 421.826 521.53 442.821 523.04 499.007 C 523.726 517.397 526.732 535.626 531.986 553.259 Z" stroke-linecap="round"/>
</g>
		<g transform="matrix(1 0 0 1 227.6238 130.5728)">
<path style="stroke: none; stroke-width: 1; stroke-dasharray: none; stroke-linecap: butt; stroke-dashoffset: 0; stroke-linejoin: miter; stroke-miterlimit: 4; is-custom-font: none; font-file-url: none; fill: rgb(255,255,255); fill-rule: nonzero; opacity: 1;" transform=" translate(-544.1238, -499.5728)" d="M 542.442 560.09 C 542.278 560.093 542.118 560.046 541.982 559.953 C 541.847 559.861 541.744 559.728 541.687 559.574 C 541.607 559.333 533.014 535.776 533.287 497.91 C 533.56 460.045 553.396 439.485 553.589 439.292 C 553.664 439.216 553.752 439.157 553.85 439.116 C 553.948 439.075 554.053 439.054 554.159 439.054 C 554.265 439.054 554.37 439.075 554.468 439.116 C 554.566 439.157 554.655 439.216 554.729 439.292 C 554.805 439.367 554.864 439.456 554.905 439.554 C 554.946 439.652 554.967 439.758 554.967 439.864 C 554.967 439.97 554.946 440.076 554.905 440.174 C 554.864 440.272 554.805 440.361 554.729 440.436 C 554.537 440.629 535.166 460.577 534.893 497.927 C 534.62 535.276 543.1 558.801 543.197 559.026 C 543.269 559.227 543.259 559.449 543.169 559.642 C 543.078 559.835 542.915 559.985 542.715 560.058 C 542.627 560.085 542.534 560.096 542.442 560.09 Z" stroke-linecap="round"/>
</g>
		<g transform="matrix(1 0 0 1 251.7935 155.2833)">
<path style="stroke: none; stroke-width: 1; stroke-dasharray: none; stroke-linecap: butt; stroke-dashoffset: 0; stroke-linejoin: miter; stroke-miterlimit: 4; is-custom-font: none; font-file-url: none; fill: rgb(32,178,170); fill-rule: nonzero; opacity: 1;" transform=" translate(-568.2934, -524.2833)" d="M 541.366 558.801 L 572.109 576.525 C 575.312 578.425 579.111 579.043 582.749 578.258 C 586.387 577.473 589.596 575.341 591.737 572.288 C 593.771 569.111 594.63 565.319 594.162 561.572 C 592.684 545.556 585.745 541.867 594.242 534.729 C 602.739 527.591 604.955 527.091 604.474 520.227 C 603.992 513.363 599.318 510.366 597.101 507.659 C 594.885 504.952 588.749 499.28 592.925 490.902 C 597.101 482.523 602.803 474.418 594.162 470.712 C 589.006 468.489 580.413 471.453 574.759 477.609 C 569.105 483.764 564.447 488.195 559.034 489.677 C 553.622 491.159 542.346 491.401 542.828 500.763 C 543.31 510.124 545.783 513.331 543.567 517.504 C 539.391 525.303 521.225 529.734 541.366 558.801 Z" stroke-linecap="round"/>
</g>
		<g transform="matrix(1 0 0 1 256.4122 152.5538)">
<path style="stroke: none; stroke-width: 1; stroke-dasharray: none; stroke-linecap: butt; stroke-dashoffset: 0; stroke-linejoin: miter; stroke-miterlimit: 4; is-custom-font: none; font-file-url: none; fill: rgb(255,255,255); fill-rule: nonzero; opacity: 1;" transform=" translate(-572.9121, -521.5538)" d="M 556.56 568.341 C 556.36 568.334 556.169 568.256 556.021 568.12 C 555.874 567.984 555.78 567.799 555.757 567.6 C 555.757 567.052 551.035 511.753 588.941 474.951 C 589.097 474.821 589.297 474.756 589.499 474.768 C 589.701 474.78 589.892 474.868 590.032 475.015 C 590.172 475.162 590.252 475.356 590.255 475.559 C 590.258 475.763 590.185 475.96 590.049 476.111 C 552.689 512.381 557.315 566.907 557.363 567.455 C 557.381 567.666 557.315 567.876 557.18 568.039 C 557.045 568.201 556.851 568.304 556.641 568.325 L 556.56 568.341 Z" stroke-linecap="round"/>
</g>
		<g transform="matrix(1 0 0 1 240.1716 139.5996)">
<path style="stroke: none; stroke-width: 1; stroke-dasharray: none; stroke-linecap: butt; stroke-dashoffset: 0; stroke-linejoin: miter; stroke-miterlimit: 4; is-custom-font: none; font-file-url: none; fill: rgb(255,255,255); fill-rule: nonzero; opacity: 1;" transform=" translate(-556.6716, -508.5997)" d="M 562.648 520.742 C 562.445 520.743 562.25 520.667 562.101 520.53 C 561.953 520.392 561.861 520.203 561.845 520.001 C 561.508 515.716 560.305 511.544 558.309 507.74 C 556.312 503.937 553.564 500.581 550.232 497.878 C 550.145 497.817 550.071 497.739 550.014 497.65 C 549.958 497.56 549.919 497.459 549.901 497.355 C 549.883 497.25 549.886 497.142 549.91 497.039 C 549.934 496.935 549.978 496.837 550.039 496.75 C 550.099 496.664 550.175 496.59 550.263 496.533 C 550.351 496.476 550.45 496.438 550.553 496.42 C 550.656 496.402 550.762 496.405 550.864 496.428 C 550.966 496.452 551.062 496.496 551.147 496.557 C 554.698 499.382 557.625 502.916 559.743 506.935 C 561.861 510.954 563.124 515.37 563.451 519.904 C 563.469 520.12 563.401 520.334 563.263 520.5 C 563.125 520.666 562.927 520.77 562.712 520.791 L 562.648 520.742 Z" stroke-linecap="round"/>
</g>
		<g transform="matrix(1 0 0 1 259.2333 156.245)">
<path style="stroke: none; stroke-width: 1; stroke-dasharray: none; stroke-linecap: butt; stroke-dashoffset: 0; stroke-linejoin: miter; stroke-miterlimit: 4; is-custom-font: none; font-file-url: none; fill: rgb(255,255,255); fill-rule: nonzero; opacity: 1;" transform=" translate(-575.7333, -525.245)" d="M 560.03 530.233 C 559.835 530.235 559.647 530.167 559.5 530.04 C 559.34 529.897 559.243 529.698 559.228 529.484 C 559.213 529.271 559.281 529.059 559.419 528.896 C 559.805 528.445 569.297 517.939 591.543 520.727 C 591.754 520.755 591.945 520.866 592.074 521.035 C 592.204 521.204 592.261 521.418 592.234 521.629 C 592.206 521.842 592.096 522.035 591.928 522.167 C 591.76 522.3 591.547 522.361 591.334 522.338 C 569.972 519.647 560.704 529.863 560.608 529.959 C 560.535 530.042 560.446 530.108 560.346 530.155 C 560.247 530.202 560.139 530.229 560.03 530.233 Z" stroke-linecap="round"/>
</g>
		<g transform="matrix(1 0 0 1 20.6235 -32.9411)">
<path style="stroke: none; stroke-width: 1; stroke-dasharray: none; stroke-linecap: butt; stroke-dashoffset: 0; stroke-linejoin: miter; stroke-miterlimit: 4; is-custom-font: none; font-file-url: none; fill: rgb(69,90,100); fill-rule: nonzero; opacity: 1;" transform=" translate(-337.1235, -336.0588)" d="M 441.012 654.901 L 233.235 534.554 C 218.57 526.062 206.685 503.279 206.685 483.67 V 37.3442 C 206.685 17.7349 218.57 8.7278 233.235 17.2193 L 441.012 137.566 C 455.676 146.057 467.562 168.841 467.562 188.45 V 634.776 C 467.562 654.369 455.676 663.392 441.012 654.901 Z" stroke-linecap="round"/>
</g>
		<g transform="matrix(1 0 0 1 37.135 -41.026)">
<path style="stroke: none; stroke-width: 1; stroke-dasharray: none; stroke-linecap: butt; stroke-dashoffset: 0; stroke-linejoin: miter; stroke-miterlimit: 4; is-custom-font: none; font-file-url: none; fill: rgb(55,71,79); fill-rule: nonzero; opacity: 1;" transform=" translate(-353.635, -327.974)" d="M 464.944 123.531 L 257.151 3.18464 C 250.887 -0.440748 245.137 -0.859684 240.591 1.36389 C 240.035 1.64345 239.498 1.96109 238.985 2.31454 L 215.695 15.8977 C 220.385 13.0779 226.521 13.2874 233.251 17.1867 L 441.028 137.533 C 455.692 146.025 467.578 168.808 467.578 188.418 V 634.743 C 467.578 645.12 464.253 652.467 458.953 655.948 L 481.938 642.526 C 487.8 639.4 491.575 631.746 491.575 620.773 V 174.448 C 491.575 154.806 479.609 132.023 464.944 123.531 Z" stroke-linecap="round"/>
</g>
		<g transform="matrix(1 0 0 1 158.7555 46.198)">
<path style="stroke: none; stroke-width: 1; stroke-dasharray: none; stroke-linecap: butt; stroke-dashoffset: 0; stroke-linejoin: miter; stroke-miterlimit: 4; is-custom-font: none; font-file-url: none; fill: rgb(38,50,56); fill-rule: nonzero; opacity: 1;" transform=" translate(-475.2555, -415.198)" d="M 467.562 188.418 V 634.743 C 467.562 645.12 464.237 652.468 458.937 655.948 L 481.937 642.526 C 487.8 639.4 491.574 631.747 491.574 620.774 V 174.448 L 467.642 188.386 L 467.562 188.418 Z" stroke-linecap="round"/>
</g>
		<g transform="matrix(1 0 0 1 163.0285 -147.5835)">
<path style="stroke: none; stroke-width: 1; stroke-dasharray: none; stroke-linecap: butt; stroke-dashoffset: 0; stroke-linejoin: miter; stroke-miterlimit: 4; is-custom-font: none; font-file-url: none; fill: rgb(55,71,79); fill-rule: nonzero; opacity: 1;" transform=" translate(-479.5285, -221.4165)" d="M 491.495 209.074 L 467.562 222.931 V 233.759 L 491.495 219.886 V 209.074 Z" stroke-linecap="round"/>
</g>
		<g transform="matrix(1 0 0 1 164.507 -104.7458)">
<path style="stroke: none; stroke-width: 1; stroke-dasharray: none; stroke-linecap: butt; stroke-dashoffset: 0; stroke-linejoin: miter; stroke-miterlimit: 4; is-custom-font: none; font-file-url: none; fill: rgb(55,71,79); fill-rule: nonzero; opacity: 1;" transform=" translate(-481.007, -264.2542)" d="M 481.007 281.082 C 478.87 282.323 477.136 281.001 477.136 278.149 V 254.866 C 477.157 253.411 477.519 251.981 478.191 250.691 C 478.863 249.401 479.828 248.287 481.007 247.438 C 483.143 246.198 484.878 247.438 484.878 250.371 V 273.654 C 484.856 275.109 484.494 276.54 483.822 277.829 C 483.15 279.119 482.186 280.233 481.007 281.082 Z" stroke-linecap="round"/>
</g>
		<g transform="matrix(1 0 0 1 162.2721 -105.6042)">
<path style="stroke: none; stroke-width: 1; stroke-dasharray: none; stroke-linecap: butt; stroke-dashoffset: 0; stroke-linejoin: miter; stroke-miterlimit: 4; is-custom-font: none; font-file-url: none; fill: rgb(69,90,100); fill-rule: nonzero; opacity: 1;" transform=" translate(-478.7722, -263.3958)" d="M 477.119 278.215 V 254.868 C 477.141 253.412 477.502 251.982 478.174 250.692 C 478.847 249.402 479.811 248.288 480.99 247.44 C 481.342 247.192 481.753 247.041 482.181 247.002 C 482.609 246.962 483.04 247.035 483.431 247.214 L 480.524 245.715 C 480.127 245.523 479.685 245.44 479.245 245.474 C 478.806 245.508 478.382 245.658 478.019 245.909 C 476.838 246.757 475.872 247.871 475.198 249.161 C 474.523 250.45 474.158 251.88 474.132 253.337 V 276.604 C 474.071 277.191 474.16 277.785 474.391 278.329 C 474.621 278.873 474.985 279.349 475.449 279.713 L 478.484 281.325 C 478.001 280.976 477.62 280.503 477.38 279.956 C 477.14 279.41 477.05 278.808 477.119 278.215 Z" stroke-linecap="round"/>
</g>
		<g transform="matrix(1 0 0 1 164.507 -48.3934)">
<path style="stroke: none; stroke-width: 1; stroke-dasharray: none; stroke-linecap: butt; stroke-dashoffset: 0; stroke-linejoin: miter; stroke-miterlimit: 4; is-custom-font: none; font-file-url: none; fill: rgb(55,71,79); fill-rule: nonzero; opacity: 1;" transform=" translate(-481.007, -320.6066)" d="M 481.007 337.428 C 478.87 338.669 477.136 337.428 477.136 334.496 V 311.213 C 477.159 309.758 477.521 308.328 478.193 307.038 C 478.865 305.748 479.829 304.634 481.007 303.785 C 483.143 302.544 484.878 303.785 484.878 306.733 V 330 C 484.858 331.456 484.498 332.887 483.826 334.178 C 483.153 335.468 482.188 336.582 481.007 337.428 Z" stroke-linecap="round"/>
</g>
		<g transform="matrix(1 0 0 1 162.2716 -49.2495)">
<path style="stroke: none; stroke-width: 1; stroke-dasharray: none; stroke-linecap: butt; stroke-dashoffset: 0; stroke-linejoin: miter; stroke-miterlimit: 4; is-custom-font: none; font-file-url: none; fill: rgb(69,90,100); fill-rule: nonzero; opacity: 1;" transform=" translate(-478.7716, -319.7504)" d="M 477.119 334.496 V 311.213 C 477.142 309.758 477.504 308.328 478.176 307.038 C 478.848 305.748 479.812 304.634 480.99 303.785 C 481.344 303.542 481.754 303.394 482.181 303.354 C 482.609 303.315 483.039 303.385 483.431 303.559 L 480.524 302.045 C 480.129 301.844 479.686 301.756 479.244 301.79 C 478.803 301.824 478.379 301.979 478.018 302.238 C 476.836 303.084 475.867 304.197 475.192 305.487 C 474.517 306.777 474.154 308.209 474.131 309.666 V 332.997 C 474.07 333.585 474.158 334.179 474.389 334.723 C 474.619 335.267 474.984 335.744 475.448 336.107 L 478.484 337.718 C 477.981 337.361 477.587 336.87 477.346 336.301 C 477.105 335.732 477.026 335.107 477.119 334.496 Z" stroke-linecap="round"/>
</g>
		<g transform="matrix(1 0 0 1 20.5833 -33.1758)">
<path style="stroke: none; stroke-width: 1; stroke-dasharray: none; stroke-linecap: butt; stroke-dashoffset: 0; stroke-linejoin: miter; stroke-miterlimit: 4; is-custom-font: none; font-file-url: none; fill: rgb(32,178,170); fill-rule: nonzero; opacity: 1;" transform=" translate(-337.0833, -335.8241)" d="M 433.752 150.085 L 229.573 31.7846 C 228.72 31.2928 227.755 31.0331 226.772 31.0313 C 225.789 31.0294 224.822 31.2855 223.968 31.7741 C 223.114 32.2627 222.403 32.9668 221.904 33.8166 C 221.405 34.6664 221.136 35.6323 221.124 36.6184 V 483.669 C 221.124 498.589 231.677 516.91 244.558 524.37 L 443.726 639.786 C 444.671 640.331 445.742 640.618 446.831 640.617 C 447.921 640.616 448.991 640.328 449.935 639.781 C 450.879 639.234 451.662 638.448 452.208 637.502 C 452.753 636.555 453.041 635.481 453.042 634.388 V 183.648 C 453.122 171.338 444.417 156.24 433.752 150.085 Z" stroke-linecap="round"/>
</g>
		<g transform="matrix(1 0 0 1 20.5833 -33.1758)">
<path style="stroke: none; stroke-width: 1; stroke-dasharray: none; stroke-linecap: butt; stroke-dashoffset: 0; stroke-linejoin: miter; stroke-miterlimit: 4; is-custom-font: none; font-file-url: none; fill: rgb(255,255,255); fill-rule: nonzero; opacity: 0.9;" transform=" translate(-337.0833, -335.8241)" d="M 433.752 150.085 L 229.573 31.7846 C 228.72 31.2928 227.755 31.0331 226.772 31.0313 C 225.789 31.0294 224.822 31.2855 223.968 31.7741 C 223.114 32.2627 222.403 32.9668 221.904 33.8166 C 221.405 34.6664 221.136 35.6323 221.124 36.6184 V 483.669 C 221.124 498.589 231.677 516.91 244.558 524.37 L 443.726 639.786 C 444.671 640.331 445.742 640.618 446.831 640.617 C 447.921 640.616 448.991 640.328 449.935 639.781 C 450.879 639.234 451.662 638.448 452.208 637.502 C 452.753 636.555 453.041 635.481 453.042 634.388 V 183.648 C 453.122 171.338 444.417 156.24 433.752 150.085 Z" stroke-linecap="round"/>
</g>
		<g transform="matrix(1 0 0 1 15.412 -280.071)">
<path style="stroke: none; stroke-width: 1; stroke-dasharray: none; stroke-linecap: butt; stroke-dashoffset: 0; stroke-linejoin: miter; stroke-miterlimit: 4; is-custom-font: none; font-file-url: none; fill: rgb(69,90,100); fill-rule: nonzero; opacity: 1;" transform=" translate(-331.912, -88.929)" d="M 290.641 62.6729 L 293.805 76.0304 L 361.49 115.185 L 373.183 108.933 L 290.641 62.6729 Z" stroke-linecap="round"/>
</g>
		<g transform="matrix(1 0 0 1 -9.4045 -295.4225)">
<path style="stroke: none; stroke-width: 1; stroke-dasharray: none; stroke-linecap: butt; stroke-dashoffset: 0; stroke-linejoin: miter; stroke-miterlimit: 4; is-custom-font: none; font-file-url: none; fill: rgb(38,50,56); fill-rule: nonzero; opacity: 1;" transform=" translate(-307.0955, -73.5775)" d="M 310.541 75.5792 C 310.541 77.8028 308.935 78.689 307.072 77.5933 C 306.071 76.9272 305.241 76.035 304.647 74.9884 C 304.052 73.9418 303.711 72.77 303.65 71.5672 C 303.65 69.3597 305.257 68.4574 307.12 69.5692 C 308.12 70.2319 308.95 71.1211 309.545 72.1651 C 310.139 73.2091 310.48 74.3786 310.541 75.5792 Z" stroke-linecap="round"/>
</g>
		<g transform="matrix(1 0 0 1 22.3806 -276.9729)">
<path style="stroke: none; stroke-width: 1; stroke-dasharray: none; stroke-linecap: butt; stroke-dashoffset: 0; stroke-linejoin: miter; stroke-miterlimit: 4; is-custom-font: none; font-file-url: none; fill: rgb(38,50,56); fill-rule: nonzero; opacity: 1;" transform=" translate(-338.8806, -92.0271)" d="M 356.141 103.857 C 355.771 103.855 355.407 103.76 355.081 103.584 L 320.516 84.2482 C 320.028 83.9607 319.671 83.4931 319.522 82.9454 C 319.373 82.3977 319.443 81.8132 319.718 81.3168 C 319.992 80.8204 320.45 80.4514 320.992 80.2886 C 321.534 80.1258 322.118 80.1821 322.62 80.4455 L 357.201 99.7809 C 357.621 100.015 357.952 100.383 358.141 100.827 C 358.33 101.27 358.367 101.765 358.246 102.231 C 358.124 102.698 357.852 103.111 357.471 103.406 C 357.09 103.7 356.622 103.859 356.141 103.857 Z" stroke-linecap="round"/>
</g>
		<g transform="matrix(1 0 0 1 -53.687 -239.5906)">
<path style="stroke: none; stroke-width: 1; stroke-dasharray: none; stroke-linecap: butt; stroke-dashoffset: 0; stroke-linejoin: miter; stroke-miterlimit: 4; is-custom-font: none; font-file-url: none; fill: rgb(32,178,170); fill-rule: nonzero; opacity: 1;" transform=" translate(-262.813, -129.4094)" d="M 263.945 124.821 C 261.841 123.596 260.315 124.659 260.315 127.35 C 260.315 128.696 260.647 130.021 261.28 131.207 C 261.913 132.393 262.829 133.404 263.945 134.15 C 264.543 134.514 265.23 134.707 265.929 134.707 C 266.629 134.707 267.315 134.514 267.913 134.15 L 271.27 140.241 C 270.089 140.894 268.75 141.206 267.403 141.14 C 266.055 141.075 264.753 140.635 263.64 139.87 C 260.913 138.196 258.639 135.874 257.02 133.108 C 255.401 130.343 254.486 127.22 254.356 124.015 C 254.356 118.037 258.356 115.959 263.865 119.181 C 266.976 121.191 269.525 123.964 271.27 127.238 L 267.913 129.912 C 267.085 127.88 265.712 126.117 263.945 124.821 Z" stroke-linecap="round"/>
</g>
		<g transform="matrix(1 0 0 1 -35.5445 -229.6295)">
<path style="stroke: none; stroke-width: 1; stroke-dasharray: none; stroke-linecap: butt; stroke-dashoffset: 0; stroke-linejoin: miter; stroke-miterlimit: 4; is-custom-font: none; font-file-url: none; fill: rgb(32,178,170); fill-rule: nonzero; opacity: 1;" transform=" translate(-280.9555, -139.3705)" d="M 290.593 145.01 C 290.593 151.036 286.529 153.066 280.956 149.844 C 278.15 148.162 275.803 145.811 274.122 143 C 272.44 140.189 271.477 137.005 271.318 133.731 C 271.318 127.705 275.382 125.675 280.956 128.897 C 283.767 130.571 286.12 132.92 287.802 135.733 C 289.485 138.545 290.443 141.733 290.593 145.01 Z M 277.277 137.324 C 277.305 138.708 277.661 140.065 278.314 141.283 C 278.968 142.502 279.901 143.547 281.036 144.333 C 283.028 145.493 284.634 144.333 284.634 141.594 C 284.628 140.242 284.299 138.911 283.672 137.713 C 283.046 136.516 282.142 135.487 281.036 134.714 C 279.012 133.538 277.277 134.537 277.277 137.324 Z" stroke-linecap="round"/>
</g>
		<g transform="matrix(1 0 0 1 -15.749 -218.0765)">
<path style="stroke: none; stroke-width: 1; stroke-dasharray: none; stroke-linecap: butt; stroke-dashoffset: 0; stroke-linejoin: miter; stroke-miterlimit: 4; is-custom-font: none; font-file-url: none; fill: rgb(32,178,170); fill-rule: nonzero; opacity: 1;" transform=" translate(-300.751, -150.9235)" d="M 297.065 138.613 L 304.003 153.115 V 142.674 L 309.256 145.719 V 166.037 L 304.437 163.234 L 297.53 148.861 V 159.238 L 292.246 156.176 V 135.81 L 297.065 138.613 Z" stroke-linecap="round"/>
</g>
		<g transform="matrix(1 0 0 1 2.0325 -209.239)">
<path style="stroke: none; stroke-width: 1; stroke-dasharray: none; stroke-linecap: butt; stroke-dashoffset: 0; stroke-linejoin: miter; stroke-miterlimit: 4; is-custom-font: none; font-file-url: none; fill: rgb(32,178,170); fill-rule: nonzero; opacity: 1;" transform=" translate(-318.5325, -159.761)" d="M 326.427 155.612 V 160.929 L 321.415 158.028 V 173.046 L 315.617 169.678 V 154.661 L 310.638 151.777 V 146.476 L 326.427 155.612 Z" stroke-linecap="round"/>
</g>
		<g transform="matrix(1 0 0 1 18.0535 -196.3735)">
<path style="stroke: none; stroke-width: 1; stroke-dasharray: none; stroke-linecap: butt; stroke-dashoffset: 0; stroke-linejoin: miter; stroke-miterlimit: 4; is-custom-font: none; font-file-url: none; fill: rgb(32,178,170); fill-rule: nonzero; opacity: 1;" transform=" translate(-334.5535, -172.6265)" d="M 337.733 179.62 L 331.148 175.801 L 330.249 178.153 L 324.306 174.705 L 331.71 158.673 L 337.669 162.121 L 344.801 186.58 L 338.617 183.003 L 337.733 179.62 Z M 336.304 173.98 L 334.505 167.035 L 332.658 171.869 L 336.304 173.98 Z" stroke-linecap="round"/>
</g>
		<g transform="matrix(1 0 0 1 36.3805 -187.4312)">
<path style="stroke: none; stroke-width: 1; stroke-dasharray: none; stroke-linecap: butt; stroke-dashoffset: 0; stroke-linejoin: miter; stroke-miterlimit: 4; is-custom-font: none; font-file-url: none; fill: rgb(32,178,170); fill-rule: nonzero; opacity: 1;" transform=" translate(-352.8805, -181.5688)" d="M 354.005 176.978 C 351.901 175.769 350.375 176.817 350.375 179.524 C 350.378 180.869 350.71 182.193 351.343 183.378 C 351.976 184.564 352.89 185.575 354.005 186.323 C 354.607 186.684 355.295 186.874 355.997 186.874 C 356.698 186.874 357.386 186.684 357.988 186.323 L 361.345 192.414 C 360.159 193.06 358.819 193.367 357.471 193.302 C 356.123 193.237 354.818 192.801 353.7 192.043 C 350.97 190.368 348.695 188.043 347.076 185.275 C 345.456 182.506 344.543 179.38 344.416 176.172 C 344.416 170.194 348.431 168.116 353.925 171.338 C 357.032 173.358 359.583 176.128 361.345 179.395 L 357.988 182.053 C 357.142 180.032 355.766 178.278 354.005 176.978 Z" stroke-linecap="round"/>
</g>
		<g transform="matrix(1 0 0 1 52.787 -179.801)">
<path style="stroke: none; stroke-width: 1; stroke-dasharray: none; stroke-linecap: butt; stroke-dashoffset: 0; stroke-linejoin: miter; stroke-miterlimit: 4; is-custom-font: none; font-file-url: none; fill: rgb(32,178,170); fill-rule: nonzero; opacity: 1;" transform=" translate(-369.287, -189.199)" d="M 377.181 185.018 V 190.319 L 372.17 187.419 V 202.484 L 366.372 199.117 V 184.099 L 361.393 181.215 V 175.914 L 377.181 185.018 Z" stroke-linecap="round"/>
</g>
		<g transform="matrix(1 0 0 1 77.7325 -165.4972)">
<path style="stroke: none; stroke-width: 1; stroke-dasharray: none; stroke-linecap: butt; stroke-dashoffset: 0; stroke-linejoin: miter; stroke-miterlimit: 4; is-custom-font: none; font-file-url: none; fill: rgb(32,178,170); fill-rule: nonzero; opacity: 1;" transform=" translate(-394.2325, -203.5028)" d="M 394.32 209.96 C 395.75 210.782 396.842 210.138 396.842 208.124 V 196.409 L 402.657 199.761 V 211.475 C 402.657 216.873 399.444 218.484 394.304 215.535 C 391.828 214.156 389.747 212.162 388.259 209.744 C 386.771 207.326 385.927 204.566 385.808 201.727 V 190.013 L 391.622 193.38 V 205.094 C 391.644 206.064 391.902 207.014 392.372 207.862 C 392.842 208.71 393.511 209.43 394.32 209.96 Z" stroke-linecap="round"/>
</g>
		<g transform="matrix(1 0 0 1 95.5035 -153.3626)">
<path style="stroke: none; stroke-width: 1; stroke-dasharray: none; stroke-linecap: butt; stroke-dashoffset: 0; stroke-linejoin: miter; stroke-miterlimit: 4; is-custom-font: none; font-file-url: none; fill: rgb(32,178,170); fill-rule: nonzero; opacity: 1;" transform=" translate(-412.0035, -215.6374)" d="M 412.02 210.025 C 411.361 209.654 410.944 209.638 410.944 210.251 C 410.944 212.796 420.019 216.47 420.019 223.834 C 420.019 228.345 416.597 228.361 412.646 226.073 C 409.173 223.938 406.181 221.102 403.86 217.743 L 406.013 213.94 C 407.779 216.684 410.046 219.067 412.694 220.966 C 413.546 221.465 414.092 221.465 414.092 220.74 C 414.092 218.098 405.001 214.585 405.001 207.447 C 405.001 203.387 407.956 202.613 412.518 205.191 C 415.456 206.974 418.042 209.285 420.147 212.007 L 418.043 215.906 C 416.305 213.686 414.279 211.708 412.02 210.025 Z" stroke-linecap="round"/>
</g>
		<g transform="matrix(1 0 0 1 -113.7608 -168.7385)">
<path style="stroke: none; stroke-width: 1; stroke-dasharray: none; stroke-linecap: butt; stroke-dashoffset: 0; stroke-linejoin: miter; stroke-miterlimit: 4; is-custom-font: none; font-file-url: none; fill: rgb(32,178,170); fill-rule: nonzero; opacity: 1;" transform=" translate(-202.7392, -200.2615)" d="M 234.728 224.946 C 241.245 216.917 244.526 206.729 243.922 196.392 C 243.319 186.055 238.876 176.32 231.47 169.108 C 224.063 161.896 214.231 157.731 203.914 157.434 C 193.596 157.137 183.542 160.73 175.735 167.504 C 167.929 174.278 162.937 183.741 161.743 194.026 C 160.55 204.311 163.243 214.671 169.29 223.063 C 175.338 231.454 184.301 237.267 194.41 239.355 C 204.52 241.442 215.043 239.653 223.902 234.34 L 244.012 243.106 L 234.728 224.946 Z" stroke-linecap="round"/>
</g>
		<g transform="matrix(1 0 0 1 -113.7608 -168.7385)">
<path style="stroke: none; stroke-width: 1; stroke-dasharray: none; stroke-linecap: butt; stroke-dashoffset: 0; stroke-linejoin: miter; stroke-miterlimit: 4; is-custom-font: none; font-file-url: none; fill: rgb(0,0,0); fill-rule: nonzero; opacity: 0.4;" transform=" translate(-202.7392, -200.2615)" d="M 234.728 224.946 C 241.245 216.917 244.526 206.729 243.922 196.392 C 243.319 186.055 238.876 176.32 231.47 169.108 C 224.063 161.896 214.231 157.731 203.914 157.434 C 193.596 157.137 183.542 160.73 175.735 167.504 C 167.929 174.278 162.937 183.741 161.743 194.026 C 160.55 204.311 163.243 214.671 169.29 223.063 C 175.338 231.454 184.301 237.267 194.41 239.355 C 204.52 241.442 215.043 239.653 223.902 234.34 L 244.012 243.106 L 234.728 224.946 Z" stroke-linecap="round"/>
</g>
		<g transform="matrix(1 0 0 1 -130.014 -168.8915)">
<path style="stroke: none; stroke-width: 1; stroke-dasharray: none; stroke-linecap: butt; stroke-dashoffset: 0; stroke-linejoin: miter; stroke-miterlimit: 4; is-custom-font: none; font-file-url: none; fill: rgb(255,255,255); fill-rule: nonzero; opacity: 1;" transform=" translate(-186.486, -200.1085)" d="M 187.442 196.588 C 187.442 195.959 186.992 195.605 186.173 195.605 C 184.273 195.855 182.498 196.694 181.097 198.006 L 178.816 193.559 C 181.217 191.746 184.117 190.722 187.12 190.626 C 190.975 190.626 193.899 192.656 193.899 195.685 C 193.899 197.845 192.292 199.923 190.236 202.002 L 187.361 204.854 H 194.156 V 209.591 H 179.555 V 205.708 L 186.06 198.956 C 186.761 198.335 187.245 197.505 187.442 196.588 Z" stroke-linecap="round"/>
</g>
		<g transform="matrix(1 0 0 1 -113.197 -168.7555)">
<path style="stroke: none; stroke-width: 1; stroke-dasharray: none; stroke-linecap: butt; stroke-dashoffset: 0; stroke-linejoin: miter; stroke-miterlimit: 4; is-custom-font: none; font-file-url: none; fill: rgb(255,255,255); fill-rule: nonzero; opacity: 1;" transform=" translate(-203.303, -200.2445)" d="M 206.041 190.899 L 201.608 201.566 H 203.423 V 197.973 H 209.013 V 201.566 H 211.133 V 205.965 H 209.013 V 209.59 H 203.423 V 205.965 H 195.473 V 201.969 L 200.291 190.899 H 206.041 Z" stroke-linecap="round"/>
</g>
		<g transform="matrix(1 0 0 1 -95.8967 -169.287)">
<path style="stroke: none; stroke-width: 1; stroke-dasharray: none; stroke-linecap: butt; stroke-dashoffset: 0; stroke-linejoin: miter; stroke-miterlimit: 4; is-custom-font: none; font-file-url: none; fill: rgb(255,255,255); fill-rule: nonzero; opacity: 1;" transform=" translate(-220.6033, -199.713)" d="M 228.384 200.293 V 209.59 H 222.409 V 202.017 C 222.443 201.771 222.425 201.52 222.354 201.281 C 222.283 201.042 222.163 200.821 222 200.633 C 221.837 200.446 221.636 200.295 221.41 200.192 C 221.184 200.089 220.938 200.035 220.69 200.035 C 219.518 200.035 218.779 200.954 218.779 202.372 V 209.59 H 212.804 V 189.836 H 218.779 V 197.103 C 219.246 196.362 219.898 195.755 220.669 195.343 C 221.441 194.93 222.306 194.726 223.18 194.75 C 223.896 194.732 224.608 194.865 225.269 195.142 C 225.93 195.418 226.526 195.831 227.017 196.354 C 227.508 196.878 227.884 197.499 228.119 198.178 C 228.355 198.856 228.445 199.577 228.384 200.293 Z" stroke-linecap="round"/>
</g>
		<g transform="matrix(1 0 0 1 23.001 31.31)">
<path style="stroke: none; stroke-width: 1; stroke-dasharray: none; stroke-linecap: butt; stroke-dashoffset: 0; stroke-linejoin: miter; stroke-miterlimit: 4; is-custom-font: none; font-file-url: none; fill: rgb(32,178,170); fill-rule: nonzero; opacity: 1;" transform=" translate(-339.501, -400.31)" d="M 423.216 350.014 V 550.216 C 423.219 552.48 422.628 554.705 421.501 556.668 C 420.375 558.63 418.753 560.26 416.799 561.393 C 414.845 562.527 412.628 563.124 410.371 563.125 C 408.114 563.126 405.896 562.53 403.941 561.398 L 296.455 499.138 L 277.405 488.117 C 270.846 484.312 265.397 478.847 261.603 472.267 C 257.809 465.687 255.803 458.224 255.786 450.622 V 250.404 C 255.783 248.14 256.374 245.915 257.501 243.953 C 258.627 241.99 260.249 240.36 262.203 239.227 C 264.157 238.093 266.374 237.496 268.631 237.495 C 270.888 237.494 273.106 238.09 275.06 239.222 L 401.628 312.519 C 408.191 316.318 413.641 321.783 417.43 328.365 C 421.219 334.947 423.215 342.413 423.216 350.014 Z" stroke-linecap="round"/>
</g>
		<g transform="matrix(1 0 0 1 23.001 31.31)">
<path style="stroke: none; stroke-width: 1; stroke-dasharray: none; stroke-linecap: butt; stroke-dashoffset: 0; stroke-linejoin: miter; stroke-miterlimit: 4; is-custom-font: none; font-file-url: none; fill: rgb(255,255,255); fill-rule: nonzero; opacity: 0.5;" transform=" translate(-339.501, -400.31)" d="M 423.216 350.014 V 550.216 C 423.219 552.48 422.628 554.705 421.501 556.668 C 420.375 558.63 418.753 560.26 416.799 561.393 C 414.845 562.527 412.628 563.124 410.371 563.125 C 408.114 563.126 405.896 562.53 403.941 561.398 L 296.455 499.138 L 277.405 488.117 C 270.846 484.312 265.397 478.847 261.603 472.267 C 257.809 465.687 255.803 458.224 255.786 450.622 V 250.404 C 255.783 248.14 256.374 245.915 257.501 243.953 C 258.627 241.99 260.249 240.36 262.203 239.227 C 264.157 238.093 266.374 237.496 268.631 237.495 C 270.888 237.494 273.106 238.09 275.06 239.222 L 401.628 312.519 C 408.191 316.318 413.641 321.783 417.43 328.365 C 421.219 334.947 423.215 342.413 423.216 350.014 Z" stroke-linecap="round"/>
</g>
		<g transform="matrix(1 0 0 1 17.7826 135.092)">
<path style="stroke: none; stroke-width: 1; stroke-dasharray: none; stroke-linecap: butt; stroke-dashoffset: 0; stroke-linejoin: miter; stroke-miterlimit: 4; is-custom-font: none; font-file-url: none; fill: rgb(38,50,56); fill-rule: nonzero; opacity: 1;" transform=" translate(-334.2826, -504.092)" d="M 361.296 468.475 C 361.296 468.475 381.422 501.957 366.886 539.709 L 296.406 499.137 L 361.296 468.475 Z" stroke-linecap="round"/>
</g>
		<g transform="matrix(1 0 0 1 54.496 -53.7245)">
<path style="stroke: none; stroke-width: 1; stroke-dasharray: none; stroke-linecap: butt; stroke-dashoffset: 0; stroke-linejoin: miter; stroke-miterlimit: 4; is-custom-font: none; font-file-url: none; fill: rgb(38,50,56); fill-rule: nonzero; opacity: 1;" transform=" translate(-370.996, -315.2755)" d="M 393.394 318.042 C 394.917 305.633 386.124 294.335 373.754 292.807 C 361.384 291.279 350.121 300.1 348.598 312.509 C 347.075 324.918 355.868 336.216 368.238 337.744 C 380.608 339.272 391.87 330.451 393.394 318.042 Z" stroke-linecap="round"/>
</g>
		<g transform="matrix(1 0 0 1 62.8267 -118.4641)">
<path style="stroke: none; stroke-width: 1; stroke-dasharray: none; stroke-linecap: butt; stroke-dashoffset: 0; stroke-linejoin: miter; stroke-miterlimit: 4; is-custom-font: none; font-file-url: none; fill: rgb(38,50,56); fill-rule: nonzero; opacity: 1;" transform=" translate(-379.3267, -250.5358)" d="M 371.111 251.773 C 371.111 251.773 378.034 240.495 380.154 241.316 C 382.274 242.138 378.773 252.885 378.773 252.885 C 378.773 252.885 389.245 255.077 387.302 257.719 C 385.358 260.362 372.557 259.733 372.557 259.733 L 371.111 251.773 Z" stroke-linecap="round"/>
</g>
		<g transform="matrix(1 0 0 1 6.7999 -98.1811)">
<path style="stroke: none; stroke-width: 1; stroke-dasharray: none; stroke-linecap: butt; stroke-dashoffset: 0; stroke-linejoin: miter; stroke-miterlimit: 4; is-custom-font: none; font-file-url: none; fill: rgb(38,50,56); fill-rule: nonzero; opacity: 1;" transform=" translate(-323.3, -270.8189)" d="M 375.929 280.841 C 371.111 317.16 340.593 317.16 340.593 317.16 L 276.667 288.93 C 276.667 288.93 271.848 284.692 270.371 274.96 C 269.804 270.974 269.804 266.927 270.371 262.94 C 270.371 262.94 270.371 262.859 270.371 262.827 C 272.41 247.552 283.798 231.133 308.598 226.09 C 314.033 224.989 319.565 224.449 325.11 224.479 C 327.792 224.469 330.473 224.604 333.14 224.881 C 352.415 226.783 365.923 235.806 372.364 249.84 C 373.812 253.008 374.89 256.333 375.576 259.75 C 376.883 266.709 377.003 273.841 375.929 280.841 Z" stroke-linecap="round"/>
</g>
		<g transform="matrix(1 0 0 1 -109.5389 -5.7605)">
<path style="stroke: none; stroke-width: 1; stroke-dasharray: none; stroke-linecap: butt; stroke-dashoffset: 0; stroke-linejoin: miter; stroke-miterlimit: 4; is-custom-font: none; font-file-url: none; fill: rgb(32,178,170); fill-rule: nonzero; opacity: 1;" transform=" translate(-206.9611, -363.2395)" d="M 222.458 351.092 C 222.458 351.092 199.762 350.303 191.024 372.49 C 191.024 372.49 200.662 379.016 213.302 372.49 C 225.943 365.965 222.458 351.092 222.458 351.092 Z" stroke-linecap="round"/>
</g>
		<g transform="matrix(1 0 0 1 -109.5389 -5.7605)">
<path style="stroke: none; stroke-width: 1; stroke-dasharray: none; stroke-linecap: butt; stroke-dashoffset: 0; stroke-linejoin: miter; stroke-miterlimit: 4; is-custom-font: none; font-file-url: none; fill: rgb(0,0,0); fill-rule: nonzero; opacity: 0.5;" transform=" translate(-206.9611, -363.2395)" d="M 222.458 351.092 C 222.458 351.092 199.762 350.303 191.024 372.49 C 191.024 372.49 200.662 379.016 213.302 372.49 C 225.943 365.965 222.458 351.092 222.458 351.092 Z" stroke-linecap="round"/>
</g>
		<g transform="matrix(1 0 0 1 -113.7438 -15.9718)">
<path style="stroke: none; stroke-width: 1; stroke-dasharray: none; stroke-linecap: butt; stroke-dashoffset: 0; stroke-linejoin: miter; stroke-miterlimit: 4; is-custom-font: none; font-file-url: none; fill: rgb(243,202,202); fill-rule: nonzero; opacity: 1;" transform=" translate(-202.7561, -353.0282)" d="M 221.815 361.776 C 221.815 361.776 215.391 333.772 212.001 333.434 C 208.612 333.096 207.954 341.974 208.227 346.985 L 200.196 329.647 C 199.941 329.109 199.579 328.628 199.132 328.235 C 198.685 327.842 198.162 327.545 197.597 327.362 C 197.031 327.18 196.434 327.115 195.842 327.173 C 195.25 327.231 194.677 327.409 194.157 327.698 C 186.126 332.129 172.039 345.599 201.738 378.904 L 221.815 361.776 Z" stroke-linecap="round"/>
</g>
		<g transform="matrix(1 0 0 1 -69.002 19.8882)">
<path style="stroke: none; stroke-width: 1; stroke-dasharray: none; stroke-linecap: butt; stroke-dashoffset: 0; stroke-linejoin: miter; stroke-miterlimit: 4; is-custom-font: none; font-file-url: none; fill: rgb(32,178,170); fill-rule: nonzero; opacity: 1;" transform=" translate(-247.498, -388.8882)" d="M 304.052 342.409 L 299.234 341.78 C 294.378 341.134 289.438 341.797 284.921 343.7 C 280.405 345.603 276.475 348.677 273.535 352.608 L 244.864 390.892 L 222.377 351.093 C 222.377 351.093 219.679 378.163 190.944 372.491 L 221.799 424.584 C 223.752 427.882 226.47 430.658 229.722 432.676 C 232.974 434.693 236.663 435.893 240.477 436.173 C 244.29 436.453 248.114 435.805 251.624 434.284 C 255.135 432.763 258.226 430.413 260.637 427.436 L 287.043 394.872 L 304.052 342.409 Z" stroke-linecap="round"/>
</g>
		<g transform="matrix(1 0 0 1 3.2737 52.2836)">
<path style="stroke: none; stroke-width: 1; stroke-dasharray: none; stroke-linecap: butt; stroke-dashoffset: 0; stroke-linejoin: miter; stroke-miterlimit: 4; is-custom-font: none; font-file-url: none; fill: rgb(32,178,170); fill-rule: nonzero; opacity: 1;" transform=" translate(-319.7736, -421.2836)" d="M 365.248 431.754 C 358.824 448.092 358.117 451.283 362.036 459.452 C 364.765 465.485 366.917 471.765 368.461 478.207 C 368.461 478.207 338.682 511.69 296.295 499.154 L 277.245 488.133 C 273.283 485.841 269.715 482.925 266.676 479.496 L 272.475 436.12 C 272.767 433.837 272.536 431.517 271.8 429.337 L 265.713 411.436 C 262.742 402.692 262.3 393.284 264.438 384.299 C 266.575 375.314 271.205 367.119 277.791 360.664 L 298.254 340.604 L 351.997 347.5 L 360.028 349.804 C 365.286 351.329 369.818 354.707 372.792 359.316 C 375.767 363.924 376.983 369.455 376.219 374.892 C 373.584 393.905 369.28 421.49 365.248 431.754 Z" stroke-linecap="round"/>
</g>
		<g transform="matrix(1 0 0 1 3.2737 52.2836)">
<path style="stroke: none; stroke-width: 1; stroke-dasharray: none; stroke-linecap: butt; stroke-dashoffset: 0; stroke-linejoin: miter; stroke-miterlimit: 4; is-custom-font: none; font-file-url: none; fill: rgb(0,0,0); fill-rule: nonzero; opacity: 0.5;" transform=" translate(-319.7736, -421.2836)" d="M 365.248 431.754 C 358.824 448.092 358.117 451.283 362.036 459.452 C 364.765 465.485 366.917 471.765 368.461 478.207 C 368.461 478.207 338.682 511.69 296.295 499.154 L 277.245 488.133 C 273.283 485.841 269.715 482.925 266.676 479.496 L 272.475 436.12 C 272.767 433.837 272.536 431.517 271.8 429.337 L 265.713 411.436 C 262.742 402.692 262.3 393.284 264.438 384.299 C 266.575 375.314 271.205 367.119 277.791 360.664 L 298.254 340.604 L 351.997 347.5 L 360.028 349.804 C 365.286 351.329 369.818 354.707 372.792 359.316 C 375.767 363.924 376.983 369.455 376.219 374.892 C 373.584 393.905 369.28 421.49 365.248 431.754 Z" stroke-linecap="round"/>
</g>
		<g transform="matrix(1 0 0 1 0.738 -12.485)">
<path style="stroke: none; stroke-width: 1; stroke-dasharray: none; stroke-linecap: butt; stroke-dashoffset: 0; stroke-linejoin: miter; stroke-miterlimit: 4; is-custom-font: none; font-file-url: none; fill: rgb(32,178,170); fill-rule: nonzero; opacity: 1;" transform=" translate(-317.238, -356.515)" d="M 332.835 382.948 L 322.073 373.748 C 320.933 372.77 319.559 372.107 318.086 371.824 C 316.613 371.542 315.092 371.649 313.673 372.137 L 300.663 376.632 L 298.912 369.317 C 298.639 368.179 298.138 367.108 297.441 366.169 C 296.744 365.23 295.865 364.442 294.856 363.854 C 293.848 363.265 292.731 362.887 291.573 362.744 C 290.415 362.6 289.24 362.693 288.118 363.017 L 282.48 364.628 L 292.021 346.292 C 295.136 340.32 299.935 335.399 305.818 332.144 L 309.561 330.082 L 340.48 331.693 C 340.48 331.693 351.996 336.527 351.996 347.403 L 332.835 382.852" stroke-linecap="round"/>
</g>
		<g transform="matrix(1 0 0 1 8.61 -37.91)">
<path style="stroke: none; stroke-width: 1; stroke-dasharray: none; stroke-linecap: butt; stroke-dashoffset: 0; stroke-linejoin: miter; stroke-miterlimit: 4; is-custom-font: none; font-file-url: none; fill: rgb(243,202,202); fill-rule: nonzero; opacity: 1;" transform=" translate(-325.11, -331.09)" d="M 340.61 345.438 L 309.61 369.672 V 292.508 H 340.61 V 345.438 Z" stroke-linecap="round"/>
</g>
		<g transform="matrix(1 0 0 1 4.072 -11.114)">
<path style="stroke: none; stroke-width: 1; stroke-dasharray: none; stroke-linecap: butt; stroke-dashoffset: 0; stroke-linejoin: miter; stroke-miterlimit: 4; is-custom-font: none; font-file-url: none; fill: rgb(243,202,202); fill-rule: nonzero; opacity: 1;" transform=" translate(-320.572, -357.886)" d="M 310.091 339.074 L 300.663 376.698 L 340.481 345.439 L 310.091 339.074 Z" stroke-linecap="round"/>
</g>
		<g transform="matrix(1 0 0 1 8.5935 -56.0045)">
<path style="stroke: none; stroke-width: 1; stroke-dasharray: none; stroke-linecap: butt; stroke-dashoffset: 0; stroke-linejoin: miter; stroke-miterlimit: 4; is-custom-font: none; font-file-url: none; fill: rgb(220,166,166); fill-rule: nonzero; opacity: 1;" transform=" translate(-325.0935, -312.9955)" d="M 309.61 333.483 C 316.503 330.915 322.804 326.969 328.13 321.883 C 333.456 316.798 337.697 310.679 340.593 303.9 V 292.508 H 309.594 L 309.61 333.483 Z" stroke-linecap="round"/>
</g>
		<g transform="matrix(1 0 0 1 -3.3217 -86.2614)">
<path style="stroke: none; stroke-width: 1; stroke-dasharray: none; stroke-linecap: butt; stroke-dashoffset: 0; stroke-linejoin: miter; stroke-miterlimit: 4; is-custom-font: none; font-file-url: none; fill: rgb(243,202,202); fill-rule: nonzero; opacity: 1;" transform=" translate(-313.1783, -282.7386)" d="M 316.291 235.322 C 304.534 235.322 279.542 241.896 276.65 272.768 C 273.759 303.641 276.554 327.552 292.423 329.872 C 308.292 332.193 345.171 320.64 350.118 280.68 C 355.065 240.72 327.743 235.322 316.291 235.322 Z" stroke-linecap="round"/>
</g>
		<g transform="matrix(1 0 0 1 -24.0285 -74.0685)">
<path style="stroke: none; stroke-width: 1; stroke-dasharray: none; stroke-linecap: butt; stroke-dashoffset: 0; stroke-linejoin: miter; stroke-miterlimit: 4; is-custom-font: none; font-file-url: none; fill: rgb(220,166,166); fill-rule: nonzero; opacity: 1;" transform=" translate(-292.4715, -294.9315)" d="M 297.788 285.836 V 304.027 L 287.155 300.756 L 297.788 285.836 Z" stroke-linecap="round"/>
</g>
		<g transform="matrix(1 0 0 1 -6.89 -80.022)">
<path style="stroke: none; stroke-width: 1; stroke-dasharray: none; stroke-linecap: butt; stroke-dashoffset: 0; stroke-linejoin: miter; stroke-miterlimit: 4; is-custom-font: none; font-file-url: none; fill: rgb(38,50,56); fill-rule: nonzero; opacity: 1;" transform=" translate(-309.61, -288.978)" d="M 309.61 292.684 C 311.651 292.684 313.304 291.025 313.304 288.978 C 313.304 286.932 311.651 285.272 309.61 285.272 C 307.57 285.272 305.916 286.932 305.916 288.978 C 305.916 291.025 307.57 292.684 309.61 292.684 Z" stroke-linecap="round"/>
</g>
		<g transform="matrix(1 0 0 1 -31.2083 -82.6163)">
<path style="stroke: none; stroke-width: 1; stroke-dasharray: none; stroke-linecap: butt; stroke-dashoffset: 0; stroke-linejoin: miter; stroke-miterlimit: 4; is-custom-font: none; font-file-url: none; fill: rgb(38,50,56); fill-rule: nonzero; opacity: 1;" transform=" translate(-285.2917, -286.3837)" d="M 288.986 286.4 C 288.983 287.132 288.764 287.847 288.356 288.454 C 287.948 289.062 287.37 289.534 286.694 289.812 C 286.019 290.09 285.277 290.161 284.561 290.016 C 283.846 289.872 283.189 289.517 282.674 288.998 C 282.159 288.48 281.809 287.819 281.667 287.101 C 281.526 286.382 281.6 285.638 281.88 284.962 C 282.16 284.286 282.634 283.708 283.241 283.301 C 283.848 282.895 284.562 282.678 285.292 282.678 C 285.778 282.678 286.26 282.774 286.709 282.961 C 287.159 283.149 287.567 283.423 287.91 283.769 C 288.253 284.115 288.525 284.525 288.71 284.977 C 288.894 285.428 288.988 285.912 288.986 286.4 Z" stroke-linecap="round"/>
</g>
		<g transform="matrix(1 0 0 1 -32.2069 -93.3397)">
<path style="stroke: none; stroke-width: 1; stroke-dasharray: none; stroke-linecap: butt; stroke-dashoffset: 0; stroke-linejoin: miter; stroke-miterlimit: 4; is-custom-font: none; font-file-url: none; fill: rgb(38,50,56); fill-rule: nonzero; opacity: 1;" transform=" translate(-284.2931, -275.6603)" d="M 280.779 278.666 L 288.007 274.364 C 288.007 274.364 285.244 271.48 282.482 273.204 C 279.719 274.928 280.779 278.666 280.779 278.666 Z" stroke-linecap="round"/>
</g>
		<g transform="matrix(1 0 0 1 -18.7163 -57.0619)">
<path style="stroke: none; stroke-width: 1; stroke-dasharray: none; stroke-linecap: butt; stroke-dashoffset: 0; stroke-linejoin: miter; stroke-miterlimit: 4; is-custom-font: none; font-file-url: none; fill: rgb(220,166,166); fill-rule: nonzero; opacity: 1;" transform=" translate(-297.7837, -311.9381)" d="M 292.793 311.408 C 296.313 311.666 299.816 310.723 302.735 308.733 C 302.735 308.733 303.426 314.002 299.025 315.001 C 294.624 316 292.793 311.408 292.793 311.408 Z" stroke-linecap="round"/>
</g>
		<g transform="matrix(1 0 0 1 3.2849 -109.2896)">
<path style="stroke: none; stroke-width: 1; stroke-dasharray: none; stroke-linecap: butt; stroke-dashoffset: 0; stroke-linejoin: miter; stroke-miterlimit: 4; is-custom-font: none; font-file-url: none; fill: rgb(38,50,56); fill-rule: nonzero; opacity: 1;" transform=" translate(-319.7849, -259.7105)" d="M 286.48 245.828 C 286.48 245.828 290.897 288.447 348.672 289.784 C 348.672 289.784 366.132 247.423 331.631 233.663 C 297.13 219.903 286.48 245.828 286.48 245.828 Z" stroke-linecap="round"/>
</g>
		<g transform="matrix(1 0 0 1 35.111 -69.4356)">
<path style="stroke: none; stroke-width: 1; stroke-dasharray: none; stroke-linecap: butt; stroke-dashoffset: 0; stroke-linejoin: miter; stroke-miterlimit: 4; is-custom-font: none; font-file-url: none; fill: rgb(32,178,170); fill-rule: nonzero; opacity: 1;" transform=" translate(-351.611, -299.5644)" d="M 365.682 283.403 L 358.582 279.278 C 355.884 277.667 352.158 277.893 348.03 280.277 C 339.838 285.015 333.188 296.568 333.188 306.058 C 333.188 310.811 334.795 314.114 337.557 315.726 L 344.528 319.754 L 344.93 319.979 L 345.171 320.124 C 347.805 321.414 351.322 321.107 355.193 318.868 C 363.385 314.034 370.034 302.578 370.034 293.087 C 369.986 288.286 368.332 284.966 365.682 283.403 Z" stroke-linecap="round"/>
</g>
		<g transform="matrix(1 0 0 1 38.6377 -67.4025)">
<path style="stroke: none; stroke-width: 1; stroke-dasharray: none; stroke-linecap: butt; stroke-dashoffset: 0; stroke-linejoin: miter; stroke-miterlimit: 4; is-custom-font: none; font-file-url: none; fill: rgb(32,178,170); fill-rule: nonzero; opacity: 1;" transform=" translate(-355.1377, -301.5975)" d="M 365.626 307.672 C 371.418 297.607 371.419 286.728 365.626 283.373 C 359.834 280.019 350.442 285.458 344.65 295.523 C 338.857 305.588 338.857 316.467 344.649 319.822 C 350.442 323.176 359.833 317.737 365.626 307.672 Z" stroke-linecap="round"/>
</g>
		<g transform="matrix(1 0 0 1 38.6377 -67.4025)">
<path style="stroke: none; stroke-width: 1; stroke-dasharray: none; stroke-linecap: butt; stroke-dashoffset: 0; stroke-linejoin: miter; stroke-miterlimit: 4; is-custom-font: none; font-file-url: none; fill: rgb(0,0,0); fill-rule: nonzero; opacity: 0.5;" transform=" translate(-355.1377, -301.5975)" d="M 365.626 307.672 C 371.418 297.607 371.419 286.728 365.626 283.373 C 359.834 280.019 350.442 285.458 344.65 295.523 C 338.857 305.588 338.857 316.467 344.649 319.822 C 350.442 323.176 359.833 317.737 365.626 307.672 Z" stroke-linecap="round"/>
</g>
		<g transform="matrix(1 0 0 1 42.4765 -65.624)">
<path style="stroke: none; stroke-width: 1; stroke-dasharray: none; stroke-linecap: butt; stroke-dashoffset: 0; stroke-linejoin: miter; stroke-miterlimit: 4; is-custom-font: none; font-file-url: none; fill: rgb(32,178,170); fill-rule: nonzero; opacity: 1;" transform=" translate(-358.9765, -303.376)" d="M 368.525 292.346 L 363.707 289.526 C 361.876 288.431 359.322 288.576 356.495 290.203 C 353.542 292.139 351.084 294.745 349.321 297.81 C 347.557 300.875 346.538 304.313 346.344 307.847 C 346.344 311.069 347.484 313.373 349.331 314.437 L 354.15 317.192 C 354.235 317.255 354.327 317.309 354.423 317.353 L 354.584 317.45 C 355.713 317.88 356.93 318.025 358.129 317.873 C 359.327 317.722 360.47 317.278 361.458 316.58 C 364.409 314.645 366.865 312.042 368.628 308.98 C 370.392 305.918 371.413 302.483 371.609 298.952 C 371.481 295.682 370.356 293.41 368.525 292.346 Z" stroke-linecap="round"/>
</g>
		<g transform="matrix(1 0 0 1 44.821 -64.2152)">
<path style="stroke: none; stroke-width: 1; stroke-dasharray: none; stroke-linecap: butt; stroke-dashoffset: 0; stroke-linejoin: miter; stroke-miterlimit: 4; is-custom-font: none; font-file-url: none; fill: rgb(32,178,170); fill-rule: nonzero; opacity: 1;" transform=" translate(-361.321, -304.7848)" d="M 371.48 298.92 C 371.284 302.451 370.263 305.886 368.5 308.948 C 366.736 312.01 364.28 314.613 361.329 316.548 C 355.708 319.77 351.162 317.16 351.162 310.667 C 351.353 307.133 352.373 303.694 354.14 300.631 C 355.907 297.567 358.37 294.966 361.329 293.039 C 366.935 289.784 371.48 292.411 371.48 298.92 Z" stroke-linecap="round"/>
</g>
		<g transform="matrix(1 0 0 1 44.821 -64.2152)">
<path style="stroke: none; stroke-width: 1; stroke-dasharray: none; stroke-linecap: butt; stroke-dashoffset: 0; stroke-linejoin: miter; stroke-miterlimit: 4; is-custom-font: none; font-file-url: none; fill: rgb(0,0,0); fill-rule: nonzero; opacity: 0.3;" transform=" translate(-361.321, -304.7848)" d="M 371.48 298.92 C 371.284 302.451 370.263 305.886 368.5 308.948 C 366.736 312.01 364.28 314.613 361.329 316.548 C 355.708 319.77 351.162 317.16 351.162 310.667 C 351.353 307.133 352.373 303.694 354.14 300.631 C 355.907 297.567 358.37 294.966 361.329 293.039 C 366.935 289.784 371.48 292.411 371.48 298.92 Z" stroke-linecap="round"/>
</g>
		<g transform="matrix(1 0 0 1 17.878 -117.2274)">
<path style="stroke: none; stroke-width: 1; stroke-dasharray: none; stroke-linecap: butt; stroke-dashoffset: 0; stroke-linejoin: miter; stroke-miterlimit: 4; is-custom-font: none; font-file-url: none; fill: rgb(32,178,170); fill-rule: nonzero; opacity: 1;" transform=" translate(-334.378, -251.7726)" d="M 343.629 227.008 C 339.025 223.44 333.385 221.477 327.567 221.417 H 326.138 C 320.246 221.353 314.364 221.893 308.582 223.028 C 309.642 223.028 310.702 223.028 311.794 223.028 H 308.582 V 226.025 H 311.57 C 321.866 226.377 331.622 230.73 338.777 238.166 C 345.932 245.602 349.924 255.538 349.909 265.872 V 278.553 C 349.909 279.055 350.013 279.55 350.216 280.008 C 350.419 280.467 350.716 280.877 351.087 281.212 C 351.458 281.548 351.895 281.802 352.37 281.957 C 352.845 282.113 353.347 282.166 353.844 282.114 H 354.214 L 357.426 281.115 C 357.212 281.183 356.991 281.226 356.768 281.244 C 357.725 281.114 358.602 280.634 359.23 279.897 C 359.858 279.16 360.194 278.217 360.173 277.248 V 265.486 C 360.141 244.201 350.969 232.761 343.629 227.008 Z" stroke-linecap="round"/>
</g>
		<g transform="matrix(1 0 0 1 7.8614 -47.4254)">
<path style="stroke: none; stroke-width: 1; stroke-dasharray: none; stroke-linecap: butt; stroke-dashoffset: 0; stroke-linejoin: miter; stroke-miterlimit: 4; is-custom-font: none; font-file-url: none; fill: rgb(32,178,170); fill-rule: nonzero; opacity: 1;" transform=" translate(-324.3614, -321.5746)" d="M 323.407 328.986 C 322.082 328.986 320.773 328.7 319.568 328.148 L 309.53 323.491 C 309.373 323.435 309.229 323.347 309.108 323.232 C 308.987 323.117 308.89 322.978 308.826 322.824 C 308.761 322.67 308.728 322.504 308.731 322.337 C 308.733 322.169 308.77 322.004 308.839 321.852 C 308.908 321.7 309.008 321.564 309.132 321.452 C 309.257 321.341 309.403 321.256 309.561 321.205 C 309.72 321.153 309.887 321.134 310.053 321.151 C 310.219 321.167 310.38 321.218 310.525 321.3 L 320.564 325.957 C 321.844 326.554 323.279 326.735 324.667 326.475 C 326.055 326.215 327.327 325.527 328.306 324.506 L 337.943 314.517 C 338.169 314.29 338.475 314.163 338.794 314.163 C 339.114 314.163 339.42 314.29 339.646 314.517 C 339.867 314.745 339.992 315.052 339.992 315.37 C 339.992 315.689 339.867 315.996 339.646 316.224 L 330.009 326.214 C 329.151 327.098 328.124 327.799 326.989 328.275 C 325.855 328.751 324.637 328.993 323.407 328.986 Z" stroke-linecap="round"/>
</g>
		<g transform="matrix(1 0 0 1 7.8614 -47.4254)">
<path style="stroke: none; stroke-width: 1; stroke-dasharray: none; stroke-linecap: butt; stroke-dashoffset: 0; stroke-linejoin: miter; stroke-miterlimit: 4; is-custom-font: none; font-file-url: none; fill: rgb(0,0,0); fill-rule: nonzero; opacity: 0.5;" transform=" translate(-324.3614, -321.5746)" d="M 323.407 328.986 C 322.082 328.986 320.773 328.7 319.568 328.148 L 309.53 323.491 C 309.373 323.435 309.229 323.347 309.108 323.232 C 308.987 323.117 308.89 322.978 308.826 322.824 C 308.761 322.67 308.728 322.504 308.731 322.337 C 308.733 322.169 308.77 322.004 308.839 321.852 C 308.908 321.7 309.008 321.564 309.132 321.452 C 309.257 321.341 309.403 321.256 309.561 321.205 C 309.72 321.153 309.887 321.134 310.053 321.151 C 310.219 321.167 310.38 321.218 310.525 321.3 L 320.564 325.957 C 321.844 326.554 323.279 326.735 324.667 326.475 C 326.055 326.215 327.327 325.527 328.306 324.506 L 337.943 314.517 C 338.169 314.29 338.475 314.163 338.794 314.163 C 339.114 314.163 339.42 314.29 339.646 314.517 C 339.867 314.745 339.992 315.052 339.992 315.37 C 339.992 315.689 339.867 315.996 339.646 316.224 L 330.009 326.214 C 329.151 327.098 328.124 327.799 326.989 328.275 C 325.855 328.751 324.637 328.993 323.407 328.986 Z" stroke-linecap="round"/>
</g>
		<g transform="matrix(1 0 0 1 -9.027 -48.892)">
<path style="stroke: none; stroke-width: 1; stroke-dasharray: none; stroke-linecap: butt; stroke-dashoffset: 0; stroke-linejoin: miter; stroke-miterlimit: 4; is-custom-font: none; font-file-url: none; fill: rgb(32,178,170); fill-rule: nonzero; opacity: 1;" transform=" translate(-307.4729, -320.108)" d="M 312.163 320.108 C 312.163 321.039 311.888 321.948 311.373 322.722 C 310.858 323.496 310.125 324.099 309.268 324.455 C 308.411 324.811 307.468 324.904 306.558 324.723 C 305.648 324.541 304.813 324.093 304.157 323.435 C 303.501 322.777 303.054 321.939 302.873 321.026 C 302.692 320.113 302.785 319.167 303.14 318.308 C 303.495 317.448 304.096 316.713 304.868 316.196 C 305.639 315.679 306.546 315.403 307.473 315.403 C 308.717 315.403 309.91 315.899 310.79 316.781 C 311.669 317.664 312.163 318.86 312.163 320.108 Z" stroke-linecap="round"/>
</g>
		<g transform="matrix(1 0 0 1 -9.027 -48.892)">
<path style="stroke: none; stroke-width: 1; stroke-dasharray: none; stroke-linecap: butt; stroke-dashoffset: 0; stroke-linejoin: miter; stroke-miterlimit: 4; is-custom-font: none; font-file-url: none; fill: rgb(0,0,0); fill-rule: nonzero; opacity: 0.5;" transform=" translate(-307.4729, -320.108)" d="M 312.163 320.108 C 312.163 321.039 311.888 321.948 311.373 322.722 C 310.858 323.496 310.125 324.099 309.268 324.455 C 308.411 324.811 307.468 324.904 306.558 324.723 C 305.648 324.541 304.813 324.093 304.157 323.435 C 303.501 322.777 303.054 321.939 302.873 321.026 C 302.692 320.113 302.785 319.167 303.14 318.308 C 303.495 317.448 304.096 316.713 304.868 316.196 C 305.639 315.679 306.546 315.403 307.473 315.403 C 308.717 315.403 309.91 315.899 310.79 316.781 C 311.669 317.664 312.163 318.86 312.163 320.108 Z" stroke-linecap="round"/>
</g>
		<g transform="matrix(1 0 0 1 17.8695 -117.6287)">
<path style="stroke: none; stroke-width: 1; stroke-dasharray: none; stroke-linecap: butt; stroke-dashoffset: 0; stroke-linejoin: miter; stroke-miterlimit: 4; is-custom-font: none; font-file-url: none; fill: rgb(32,178,170); fill-rule: nonzero; opacity: 1;" transform=" translate(-334.3695, -251.3713)" d="M 360.14 265.486 V 277.248 C 360.161 278.217 359.825 279.16 359.197 279.897 C 358.569 280.634 357.693 281.114 356.735 281.244 C 356.206 281.301 355.671 281.245 355.165 281.08 C 354.659 280.916 354.193 280.646 353.797 280.289 C 353.402 279.932 353.086 279.495 352.87 279.007 C 352.654 278.519 352.542 277.991 352.543 277.458 V 265.486 C 352.552 259.772 351.409 254.116 349.182 248.857 C 346.955 243.598 343.691 238.845 339.585 234.885 C 335.48 230.924 330.618 227.838 325.293 225.812 C 319.968 223.785 314.289 222.86 308.598 223.093 C 314.38 221.958 320.262 221.418 326.153 221.482 H 327.551 C 333.369 221.542 339.008 223.505 343.613 227.073 C 350.969 232.761 360.14 244.201 360.14 265.486 Z" stroke-linecap="round"/>
</g>
		<g transform="matrix(1 0 0 1 17.8695 -117.6287)">
<path style="stroke: none; stroke-width: 1; stroke-dasharray: none; stroke-linecap: butt; stroke-dashoffset: 0; stroke-linejoin: miter; stroke-miterlimit: 4; is-custom-font: none; font-file-url: none; fill: rgb(0,0,0); fill-rule: nonzero; opacity: 0.5;" transform=" translate(-334.3695, -251.3713)" d="M 360.14 265.486 V 277.248 C 360.161 278.217 359.825 279.16 359.197 279.897 C 358.569 280.634 357.693 281.114 356.735 281.244 C 356.206 281.301 355.671 281.245 355.165 281.08 C 354.659 280.916 354.193 280.646 353.797 280.289 C 353.402 279.932 353.086 279.495 352.87 279.007 C 352.654 278.519 352.542 277.991 352.543 277.458 V 265.486 C 352.552 259.772 351.409 254.116 349.182 248.857 C 346.955 243.598 343.691 238.845 339.585 234.885 C 335.48 230.924 330.618 227.838 325.293 225.812 C 319.968 223.785 314.289 222.86 308.598 223.093 C 314.38 221.958 320.262 221.418 326.153 221.482 H 327.551 C 333.369 221.542 339.008 223.505 343.613 227.073 C 350.969 232.761 360.14 244.201 360.14 265.486 Z" stroke-linecap="round"/>
</g>
		<g transform="matrix(1 0 0 1 37.1098 133.3449)">
<path style="stroke: none; stroke-width: 1; stroke-dasharray: none; stroke-linecap: butt; stroke-dashoffset: 0; stroke-linejoin: miter; stroke-miterlimit: 4; is-custom-font: none; font-file-url: none; fill: rgb(32,178,170); fill-rule: nonzero; opacity: 1;" transform=" translate(-353.6098, -502.345)" d="M 342.087 487.15 C 342.087 487.15 334.313 508.628 362.1 518.296 C 362.1 518.296 371.175 504.922 362.1 493.981 C 353.025 483.041 342.087 487.15 342.087 487.15 Z" stroke-linecap="round"/>
</g>
		<g transform="matrix(1 0 0 1 37.1098 133.3449)">
<path style="stroke: none; stroke-width: 1; stroke-dasharray: none; stroke-linecap: butt; stroke-dashoffset: 0; stroke-linejoin: miter; stroke-miterlimit: 4; is-custom-font: none; font-file-url: none; fill: rgb(0,0,0); fill-rule: nonzero; opacity: 0.7;" transform=" translate(-353.6098, -502.345)" d="M 342.087 487.15 C 342.087 487.15 334.313 508.628 362.1 518.296 C 362.1 518.296 371.175 504.922 362.1 493.981 C 353.025 483.041 342.087 487.15 342.087 487.15 Z" stroke-linecap="round"/>
</g>
		<g transform="matrix(1 0 0 1 28.3704 139.95)">
<path style="stroke: none; stroke-width: 1; stroke-dasharray: none; stroke-linecap: butt; stroke-dashoffset: 0; stroke-linejoin: miter; stroke-miterlimit: 4; is-custom-font: none; font-file-url: none; fill: rgb(243,202,202); fill-rule: nonzero; opacity: 1;" transform=" translate(-344.8704, -508.95)" d="M 351.837 488.134 C 351.837 488.134 324.692 498.108 324.837 501.975 C 324.982 505.842 336.369 503.199 336.369 503.199 L 332.209 505.938 C 327.829 508.806 324.436 512.958 322.492 517.83 C 322.068 518.904 322.053 520.097 322.45 521.182 C 322.847 522.267 323.628 523.167 324.644 523.711 L 334.956 529.189 C 335.538 529.499 336.177 529.689 336.833 529.747 C 337.49 529.805 338.152 529.73 338.779 529.528 C 339.406 529.325 339.987 528.998 340.486 528.566 C 340.986 528.134 341.393 527.607 341.686 527.014 C 342.261 525.875 343.055 524.861 344.023 524.031 C 344.99 523.202 346.112 522.572 347.324 522.18 C 352.929 520.311 363.386 514.929 367.578 500.202 L 351.837 488.134 Z" stroke-linecap="round"/>
</g>
		<g transform="matrix(1 0 0 1 60.1367 65.0335)">
<path style="stroke: none; stroke-width: 1; stroke-dasharray: none; stroke-linecap: butt; stroke-dashoffset: 0; stroke-linejoin: miter; stroke-miterlimit: 4; is-custom-font: none; font-file-url: none; fill: rgb(32,178,170); fill-rule: nonzero; opacity: 1;" transform=" translate(-376.6367, -434.0335)" d="M 359.98 349.771 C 359.98 349.771 345.524 357.828 353.202 382.287 C 360.879 406.746 375.287 444.692 375.287 444.692 L 342.087 487.149 C 345.634 487.579 349.051 488.753 352.114 490.597 C 355.178 492.44 357.82 494.911 359.867 497.848 C 361.829 500.835 363.054 504.247 363.442 507.802 C 363.83 511.357 363.37 514.954 362.1 518.296 L 403.315 465.123 C 407.126 460.209 409.657 454.42 410.678 448.279 C 411.699 442.137 411.177 435.838 409.161 429.949 L 391.493 378.194 C 389.334 371.872 385.745 366.138 381.008 361.439 C 376.271 356.74 370.514 353.204 364.188 351.109 L 359.98 349.771 Z" stroke-linecap="round"/>
</g>
		<g transform="matrix(1 0 0 1 -239.5156 -131.5048)">
<path style="stroke: none; stroke-width: 1; stroke-dasharray: none; stroke-linecap: butt; stroke-dashoffset: 0; stroke-linejoin: miter; stroke-miterlimit: 4; is-custom-font: none; font-file-url: none; fill: rgb(32,178,170); fill-rule: nonzero; opacity: 1;" transform=" translate(-76.9844, -237.4952)" d="M 115.967 205.289 L 52.0885 168.229 C 51.3534 167.718 50.5029 167.399 49.6139 167.3 C 48.7249 167.202 47.8254 167.327 46.9969 167.665 C 46.8223 167.746 46.6556 167.843 46.499 167.955 L 32.6054 176.124 H 32.7018 C 30.951 177.123 29.8428 179.444 29.8428 182.763 V 254.046 C 29.8428 260.072 33.4888 267.081 38.0022 269.691 L 101.88 306.751 C 102.691 307.339 103.656 307.675 104.655 307.718 C 105.654 307.761 106.644 307.509 107.502 306.993 C 107.459 307.01 107.42 307.038 107.39 307.073 L 121.187 299.017 C 122.986 298.05 124.126 295.698 124.126 292.33 V 220.934 C 124.126 214.908 120.544 207.899 115.967 205.289 Z" stroke-linecap="round"/>
</g>
		<g transform="matrix(1 0 0 1 -239.2747 -175.0442)">
<path style="stroke: none; stroke-width: 1; stroke-dasharray: none; stroke-linecap: butt; stroke-dashoffset: 0; stroke-linejoin: miter; stroke-miterlimit: 4; is-custom-font: none; font-file-url: none; fill: rgb(32,178,170); fill-rule: nonzero; opacity: 1;" transform=" translate(-77.2252, -193.9558)" d="M 121.845 212.04 C 120.553 209.283 118.517 206.944 115.967 205.289 L 52.0886 168.229 C 51.3535 167.718 50.503 167.399 49.614 167.3 C 48.7249 167.202 47.8255 167.327 46.9969 167.665 C 46.8223 167.746 46.6556 167.843 46.499 167.955 L 32.6055 176.124 C 33.4553 175.688 34.4083 175.496 35.3602 175.567 C 36.312 175.638 37.226 175.97 38.0023 176.527 L 101.881 213.587 C 104.517 215.316 106.607 217.764 107.904 220.644 L 121.845 212.04 Z" stroke-linecap="round"/>
</g>
		<g transform="matrix(1 0 0 1 -200.742 -109.5165)">
<path style="stroke: none; stroke-width: 1; stroke-dasharray: none; stroke-linecap: butt; stroke-dashoffset: 0; stroke-linejoin: miter; stroke-miterlimit: 4; is-custom-font: none; font-file-url: none; fill: rgb(32,178,170); fill-rule: nonzero; opacity: 1;" transform=" translate(-115.758, -259.4835)" d="M 110.04 300.482 C 110.04 303.705 109.012 305.945 107.39 306.928 L 121.187 298.871 C 122.986 297.904 124.126 295.552 124.126 292.184 V 220.933 C 124.058 217.832 123.278 214.788 121.845 212.039 L 107.904 220.643 C 109.242 223.312 109.972 226.245 110.04 229.231 V 300.482 Z" stroke-linecap="round"/>
</g>
		<g transform="matrix(1 0 0 1 -239.2747 -175.0442)">
<path style="stroke: none; stroke-width: 1; stroke-dasharray: none; stroke-linecap: butt; stroke-dashoffset: 0; stroke-linejoin: miter; stroke-miterlimit: 4; is-custom-font: none; font-file-url: none; fill: rgb(0,0,0); fill-rule: nonzero; opacity: 0.3;" transform=" translate(-77.2252, -193.9558)" d="M 121.845 212.04 C 120.553 209.283 118.517 206.944 115.967 205.289 L 52.0886 168.229 C 51.3535 167.718 50.503 167.399 49.614 167.3 C 48.7249 167.202 47.8255 167.327 46.9969 167.665 C 46.8223 167.746 46.6556 167.843 46.499 167.955 L 32.6055 176.124 C 33.4553 175.688 34.4083 175.496 35.3602 175.567 C 36.312 175.638 37.226 175.97 38.0023 176.527 L 101.881 213.587 C 104.517 215.316 106.607 217.764 107.904 220.644 L 121.845 212.04 Z" stroke-linecap="round"/>
</g>
		<g transform="matrix(1 0 0 1 -200.742 -109.5165)">
<path style="stroke: none; stroke-width: 1; stroke-dasharray: none; stroke-linecap: butt; stroke-dashoffset: 0; stroke-linejoin: miter; stroke-miterlimit: 4; is-custom-font: none; font-file-url: none; fill: rgb(0,0,0); fill-rule: nonzero; opacity: 0.6;" transform=" translate(-115.758, -259.4835)" d="M 110.04 300.482 C 110.04 303.705 109.012 305.945 107.39 306.928 L 121.187 298.871 C 122.986 297.904 124.126 295.552 124.126 292.184 V 220.933 C 124.058 217.832 123.278 214.788 121.845 212.039 L 107.904 220.643 C 109.242 223.312 109.972 226.245 110.04 229.231 V 300.482 Z" stroke-linecap="round"/>
</g>
		<g transform="matrix(1 0 0 1 -246.47 -130.518)">
<path style="stroke: none; stroke-width: 1; stroke-dasharray: none; stroke-linecap: butt; stroke-dashoffset: 0; stroke-linejoin: miter; stroke-miterlimit: 4; is-custom-font: none; font-file-url: none; fill: rgb(32,178,170); fill-rule: nonzero; opacity: 1;" transform=" translate(-70.0301, -238.482)" d="M 91.3121 249.648 C 91.3121 258.88 87.6661 262.022 82.205 258.848 C 80.6985 257.988 79.3812 256.83 78.3323 255.446 C 77.2833 254.061 76.5245 252.478 76.1015 250.792 C 74.4953 252.773 72.0057 252.902 68.5042 250.872 C 62.754 247.537 58.2246 239.593 58.2246 231.875 C 58.2246 224.157 62.7058 221.498 68.5042 224.85 C 71.4465 226.589 73.8232 229.147 75.3466 232.213 V 229.168 L 81.4019 232.681 V 249.374 C 81.3117 250.252 81.4632 251.138 81.8398 251.937 C 82.2164 252.735 82.8038 253.414 83.5381 253.901 C 85.578 255.094 86.8308 253.08 86.8308 247.102 C 86.8308 236.644 80.1491 225.559 70.271 219.839 C 60.3929 214.119 53.7272 218.099 53.7272 228.862 C 53.8567 234.573 55.4254 240.159 58.2874 245.098 C 61.1493 250.037 65.2111 254.168 70.0943 257.108 C 72.7457 258.746 75.7566 259.709 78.8641 259.911 L 80.2936 265.47 C 76.6753 265.177 73.1788 264.023 70.0943 262.103 C 57.2448 254.642 48.748 239.625 48.748 226.026 C 48.748 212.427 57.3251 207.496 70.271 215.005 C 82.7832 222.24 91.3121 236.725 91.3121 249.648 Z M 75.4429 241.897 C 75.4742 239.854 74.9772 237.838 74.0004 236.045 C 73.0237 234.251 71.6004 232.743 69.8695 231.666 C 66.6571 229.78 64.3602 231.102 64.3602 235.484 C 64.3189 237.531 64.8042 239.553 65.7692 241.357 C 66.7343 243.16 68.1464 244.684 69.8695 245.78 C 73.0818 247.601 75.4429 246.425 75.4429 241.897 Z" stroke-linecap="round"/>
</g>
		<g transform="matrix(1 0 0 1 -246.47 -130.518)">
<path style="stroke: none; stroke-width: 1; stroke-dasharray: none; stroke-linecap: butt; stroke-dashoffset: 0; stroke-linejoin: miter; stroke-miterlimit: 4; is-custom-font: none; font-file-url: none; fill: rgb(255,255,255); fill-rule: nonzero; opacity: 0.81;" transform=" translate(-70.0301, -238.482)" d="M 91.3121 249.648 C 91.3121 258.88 87.6661 262.022 82.205 258.848 C 80.6985 257.988 79.3812 256.83 78.3323 255.446 C 77.2833 254.061 76.5245 252.478 76.1015 250.792 C 74.4953 252.773 72.0057 252.902 68.5042 250.872 C 62.754 247.537 58.2246 239.593 58.2246 231.875 C 58.2246 224.157 62.7058 221.498 68.5042 224.85 C 71.4465 226.589 73.8232 229.147 75.3466 232.213 V 229.168 L 81.4019 232.681 V 249.374 C 81.3117 250.252 81.4632 251.138 81.8398 251.937 C 82.2164 252.735 82.8038 253.414 83.5381 253.901 C 85.578 255.094 86.8308 253.08 86.8308 247.102 C 86.8308 236.644 80.1491 225.559 70.271 219.839 C 60.3929 214.119 53.7272 218.099 53.7272 228.862 C 53.8567 234.573 55.4254 240.159 58.2874 245.098 C 61.1493 250.037 65.2111 254.168 70.0943 257.108 C 72.7457 258.746 75.7566 259.709 78.8641 259.911 L 80.2936 265.47 C 76.6753 265.177 73.1788 264.023 70.0943 262.103 C 57.2448 254.642 48.748 239.625 48.748 226.026 C 48.748 212.427 57.3251 207.496 70.271 215.005 C 82.7832 222.24 91.3121 236.725 91.3121 249.648 Z M 75.4429 241.897 C 75.4742 239.854 74.9772 237.838 74.0004 236.045 C 73.0237 234.251 71.6004 232.743 69.8695 231.666 C 66.6571 229.78 64.3602 231.102 64.3602 235.484 C 64.3189 237.531 64.8042 239.553 65.7692 241.357 C 66.7343 243.16 68.1464 244.684 69.8695 245.78 C 73.0818 247.601 75.4429 246.425 75.4429 241.897 Z" stroke-linecap="round"/>
</g>
		<g transform="matrix(1 0 0 1 -239.5156 -4.5797)">
<path style="stroke: none; stroke-width: 1; stroke-dasharray: none; stroke-linecap: butt; stroke-dashoffset: 0; stroke-linejoin: miter; stroke-miterlimit: 4; is-custom-font: none; font-file-url: none; fill: rgb(32,178,170); fill-rule: nonzero; opacity: 1;" transform=" translate(-76.9844, -364.4203)" d="M 115.967 332.225 L 52.0885 295.166 C 51.3544 294.652 50.5029 294.332 49.6128 294.236 C 48.7227 294.141 47.8229 294.272 46.9969 294.618 C 46.8223 294.699 46.6556 294.796 46.499 294.908 L 32.6054 303.077 H 32.7018 C 30.951 304.076 29.8428 306.397 29.8428 309.7 V 380.951 C 29.8428 386.993 33.4888 393.986 38.0022 396.596 L 101.88 433.656 C 102.689 434.248 103.655 434.587 104.655 434.63 C 105.655 434.673 106.646 434.418 107.502 433.897 L 107.39 433.994 L 121.187 425.857 C 122.986 424.906 124.126 422.634 124.126 419.17 V 347.855 C 124.126 341.829 120.544 334.836 115.967 332.225 Z" stroke-linecap="round"/>
</g>
		<g transform="matrix(1 0 0 1 -239.2747 -48.0986)">
<path style="stroke: none; stroke-width: 1; stroke-dasharray: none; stroke-linecap: butt; stroke-dashoffset: 0; stroke-linejoin: miter; stroke-miterlimit: 4; is-custom-font: none; font-file-url: none; fill: rgb(32,178,170); fill-rule: nonzero; opacity: 1;" transform=" translate(-77.2252, -320.9015)" d="M 121.845 338.977 C 120.558 336.217 118.52 333.877 115.967 332.225 L 52.0886 295.166 C 51.3545 294.652 50.5029 294.332 49.6128 294.236 C 48.7228 294.141 47.823 294.272 46.9969 294.618 C 46.8223 294.699 46.6556 294.796 46.499 294.908 L 32.6055 303.077 C 33.4534 302.637 34.4059 302.441 35.3581 302.509 C 36.3103 302.577 37.2253 302.908 38.0023 303.464 L 101.881 340.523 C 104.521 342.255 106.612 344.71 107.904 347.597 L 121.845 338.977 Z" stroke-linecap="round"/>
</g>
		<g transform="matrix(1 0 0 1 -200.742 17.453)">
<path style="stroke: none; stroke-width: 1; stroke-dasharray: none; stroke-linecap: butt; stroke-dashoffset: 0; stroke-linejoin: miter; stroke-miterlimit: 4; is-custom-font: none; font-file-url: none; fill: rgb(32,178,170); fill-rule: nonzero; opacity: 1;" transform=" translate(-115.758, -386.453)" d="M 110.04 427.404 C 110.04 430.626 109.012 432.866 107.39 433.929 L 121.187 425.792 C 122.986 424.842 124.126 422.57 124.126 419.106 V 347.855 C 124.058 344.759 123.278 341.72 121.845 338.977 L 107.904 347.581 C 109.242 350.243 109.972 353.172 110.04 356.153 V 427.404 Z" stroke-linecap="round"/>
</g>
		<g transform="matrix(1 0 0 1 -239.2747 -48.0986)">
<path style="stroke: none; stroke-width: 1; stroke-dasharray: none; stroke-linecap: butt; stroke-dashoffset: 0; stroke-linejoin: miter; stroke-miterlimit: 4; is-custom-font: none; font-file-url: none; fill: rgb(0,0,0); fill-rule: nonzero; opacity: 0.3;" transform=" translate(-77.2252, -320.9015)" d="M 121.845 338.977 C 120.558 336.217 118.52 333.877 115.967 332.225 L 52.0886 295.166 C 51.3545 294.652 50.5029 294.332 49.6128 294.236 C 48.7228 294.141 47.823 294.272 46.9969 294.618 C 46.8223 294.699 46.6556 294.796 46.499 294.908 L 32.6055 303.077 C 33.4534 302.637 34.4059 302.441 35.3581 302.509 C 36.3103 302.577 37.2253 302.908 38.0023 303.464 L 101.881 340.523 C 104.521 342.255 106.612 344.71 107.904 347.597 L 121.845 338.977 Z" stroke-linecap="round"/>
</g>
		<g transform="matrix(1 0 0 1 -200.742 17.453)">
<path style="stroke: none; stroke-width: 1; stroke-dasharray: none; stroke-linecap: butt; stroke-dashoffset: 0; stroke-linejoin: miter; stroke-miterlimit: 4; is-custom-font: none; font-file-url: none; fill: rgb(0,0,0); fill-rule: nonzero; opacity: 0.6;" transform=" translate(-115.758, -386.453)" d="M 110.04 427.404 C 110.04 430.626 109.012 432.866 107.39 433.929 L 121.187 425.792 C 122.986 424.842 124.126 422.57 124.126 419.106 V 347.855 C 124.058 344.759 123.278 341.72 121.845 338.977 L 107.904 347.581 C 109.242 350.243 109.972 353.172 110.04 356.153 V 427.404 Z" stroke-linecap="round"/>
</g>
		<g transform="matrix(1 0 0 1 -261.3999 -13.016)">
<path style="stroke: none; stroke-width: 1; stroke-dasharray: none; stroke-linecap: butt; stroke-dashoffset: 0; stroke-linejoin: miter; stroke-miterlimit: 4; is-custom-font: none; font-file-url: none; fill: rgb(32,178,170); fill-rule: nonzero; opacity: 1;" transform=" translate(-55.1001, -355.984)" d="M 62.8018 364.08 L 47.3984 338.977 V 372.991 L 62.8018 364.08 Z" stroke-linecap="round"/>
</g>
		<g transform="matrix(1 0 0 1 -231.7011 12.032)">
<path style="stroke: none; stroke-width: 1; stroke-dasharray: none; stroke-linecap: butt; stroke-dashoffset: 0; stroke-linejoin: miter; stroke-miterlimit: 4; is-custom-font: none; font-file-url: none; fill: rgb(32,178,170); fill-rule: nonzero; opacity: 1;" transform=" translate(-84.7989, -381.032)" d="M 77.1133 371.316 L 92.4845 398.015 V 364.049 L 77.1133 371.316 Z" stroke-linecap="round"/>
</g>
		<g transform="matrix(1 0 0 1 -246.0365 -14.2485)">
<path style="stroke: none; stroke-width: 1; stroke-dasharray: none; stroke-linecap: butt; stroke-dashoffset: 0; stroke-linejoin: miter; stroke-miterlimit: 4; is-custom-font: none; font-file-url: none; fill: rgb(32,178,170); fill-rule: nonzero; opacity: 1;" transform=" translate(-70.4634, -354.7515)" d="M 49.7275 337.833 L 65.5485 363.614 C 65.6155 363.67 65.6749 363.735 65.7252 363.807 C 65.7391 363.871 65.7391 363.937 65.7252 364 L 70.4313 371.67 L 74.4147 369.785 C 74.4767 369.717 74.5469 369.658 74.6235 369.608 C 74.7805 369.516 74.9562 369.46 75.1375 369.446 L 91.1994 361.889 L 49.7275 337.833 Z" stroke-linecap="round"/>
</g>
		<g transform="matrix(1 0 0 1 -247.0242 13.787)">
<path style="stroke: none; stroke-width: 1; stroke-dasharray: none; stroke-linecap: butt; stroke-dashoffset: 0; stroke-linejoin: miter; stroke-miterlimit: 4; is-custom-font: none; font-file-url: none; fill: rgb(32,178,170); fill-rule: nonzero; opacity: 1;" transform=" translate(-69.4758, -382.787)" d="M 74.7842 372.41 L 70.4796 374.441 C 70.3138 374.518 70.1325 374.557 69.9496 374.554 C 69.7279 374.556 69.5093 374.501 69.3151 374.394 C 69.1209 374.286 68.9577 374.131 68.8413 373.941 L 64.1351 366.271 L 48.6836 375.23 L 90.2679 399.303 L 74.7842 372.41 Z" stroke-linecap="round"/>
</g>
		<g transform="matrix(1 0 0 1 -261.3999 -13.016)">
<path style="stroke: none; stroke-width: 1; stroke-dasharray: none; stroke-linecap: butt; stroke-dashoffset: 0; stroke-linejoin: miter; stroke-miterlimit: 4; is-custom-font: none; font-file-url: none; fill: rgb(255,255,255); fill-rule: nonzero; opacity: 0.81;" transform=" translate(-55.1001, -355.984)" d="M 62.8018 364.08 L 47.3984 338.977 V 372.991 L 62.8018 364.08 Z" stroke-linecap="round"/>
</g>
		<g transform="matrix(1 0 0 1 -231.7011 12.033)">
<path style="stroke: none; stroke-width: 1; stroke-dasharray: none; stroke-linecap: butt; stroke-dashoffset: 0; stroke-linejoin: miter; stroke-miterlimit: 4; is-custom-font: none; font-file-url: none; fill: rgb(255,255,255); fill-rule: nonzero; opacity: 0.81;" transform=" translate(-84.7989, -381.033)" d="M 77.1133 371.317 L 92.4845 398.016 V 364.05 L 77.1133 371.317 Z" stroke-linecap="round"/>
</g>
		<g transform="matrix(1 0 0 1 -246.0365 -14.2485)">
<path style="stroke: none; stroke-width: 1; stroke-dasharray: none; stroke-linecap: butt; stroke-dashoffset: 0; stroke-linejoin: miter; stroke-miterlimit: 4; is-custom-font: none; font-file-url: none; fill: rgb(255,255,255); fill-rule: nonzero; opacity: 0.81;" transform=" translate(-70.4634, -354.7515)" d="M 49.7275 337.833 L 65.5485 363.614 C 65.6155 363.67 65.6749 363.735 65.7252 363.807 C 65.7391 363.871 65.7391 363.937 65.7252 364 L 70.4313 371.67 L 74.4147 369.785 C 74.4767 369.717 74.5469 369.658 74.6235 369.608 C 74.7805 369.516 74.9562 369.46 75.1375 369.446 L 91.1994 361.889 L 49.7275 337.833 Z" stroke-linecap="round"/>
</g>
		<g transform="matrix(1 0 0 1 -247.0242 13.788)">
<path style="stroke: none; stroke-width: 1; stroke-dasharray: none; stroke-linecap: butt; stroke-dashoffset: 0; stroke-linejoin: miter; stroke-miterlimit: 4; is-custom-font: none; font-file-url: none; fill: rgb(255,255,255); fill-rule: nonzero; opacity: 0.81;" transform=" translate(-69.4758, -382.788)" d="M 74.7842 372.411 L 70.4796 374.442 C 70.3138 374.519 70.1325 374.558 69.9496 374.554 C 69.7279 374.557 69.5093 374.502 69.3151 374.395 C 69.1209 374.287 68.9577 374.131 68.8413 373.942 L 64.1351 366.272 L 48.6836 375.231 L 90.2679 399.304 L 74.7842 372.411 Z" stroke-linecap="round"/>
</g>
		<g transform="matrix(1 0 0 1 -239.5156 -258.3894)">
<path style="stroke: none; stroke-width: 1; stroke-dasharray: none; stroke-linecap: butt; stroke-dashoffset: 0; stroke-linejoin: miter; stroke-miterlimit: 4; is-custom-font: none; font-file-url: none; fill: rgb(32,178,170); fill-rule: nonzero; opacity: 1;" transform=" translate(-76.9844, -110.6106)" d="M 115.967 78.4158 L 52.0885 41.3563 C 51.3544 40.8424 50.5029 40.5227 49.6128 40.4269 C 48.7227 40.3311 47.8229 40.4624 46.9969 40.8085 C 46.8223 40.8894 46.6556 40.9865 46.499 41.0985 L 32.6054 49.2677 H 32.7018 C 30.951 50.2506 29.8428 52.5869 29.8428 55.8901 V 127.141 C 29.8428 133.167 33.4888 140.176 38.0022 142.787 L 101.88 179.846 C 102.689 180.438 103.655 180.777 104.655 180.82 C 105.655 180.863 106.646 180.608 107.502 180.088 L 107.39 180.168 L 121.187 172.112 C 122.986 171.161 124.126 168.889 124.126 165.425 V 93.9969 C 124.126 87.9707 120.544 80.9616 115.967 78.4158 Z" stroke-linecap="round"/>
</g>
		<g transform="matrix(1 0 0 1 -239.2747 -301.908)">
<path style="stroke: none; stroke-width: 1; stroke-dasharray: none; stroke-linecap: butt; stroke-dashoffset: 0; stroke-linejoin: miter; stroke-miterlimit: 4; is-custom-font: none; font-file-url: none; fill: rgb(32,178,170); fill-rule: nonzero; opacity: 1;" transform=" translate(-77.2252, -67.0919)" d="M 121.845 85.1188 C 120.558 82.3542 118.521 80.009 115.967 78.3514 L 52.0886 41.3563 C 51.3545 40.8424 50.5029 40.5227 49.6128 40.4269 C 48.7228 40.3311 47.823 40.4624 46.9969 40.8085 C 46.8223 40.8894 46.6556 40.9865 46.499 41.0985 L 32.6055 49.2677 C 33.4534 48.8278 34.4059 48.6312 35.3581 48.6994 C 36.3103 48.7676 37.2253 49.0981 38.0023 49.6544 L 101.881 86.7139 C 104.521 88.4455 106.612 90.9003 107.904 93.7874 L 121.845 85.1188 Z" stroke-linecap="round"/>
</g>
		<g transform="matrix(1 0 0 1 -200.742 -236.4769)">
<path style="stroke: none; stroke-width: 1; stroke-dasharray: none; stroke-linecap: butt; stroke-dashoffset: 0; stroke-linejoin: miter; stroke-miterlimit: 4; is-custom-font: none; font-file-url: none; fill: rgb(32,178,170); fill-rule: nonzero; opacity: 1;" transform=" translate(-115.758, -132.5231)" d="M 110.04 173.482 C 110.04 176.704 109.012 178.944 107.39 179.927 L 121.187 171.871 C 122.986 170.92 124.126 168.648 124.126 165.184 V 93.9973 C 124.058 90.9011 123.278 87.8627 121.845 85.1191 L 107.904 93.7234 C 109.242 96.3859 109.972 99.3143 110.04 102.295 V 173.482 Z" stroke-linecap="round"/>
</g>
		<g transform="matrix(1 0 0 1 -239.2747 -301.908)">
<path style="stroke: none; stroke-width: 1; stroke-dasharray: none; stroke-linecap: butt; stroke-dashoffset: 0; stroke-linejoin: miter; stroke-miterlimit: 4; is-custom-font: none; font-file-url: none; fill: rgb(0,0,0); fill-rule: nonzero; opacity: 0.3;" transform=" translate(-77.2252, -67.0919)" d="M 121.845 85.1188 C 120.558 82.3542 118.521 80.009 115.967 78.3514 L 52.0886 41.3563 C 51.3545 40.8424 50.5029 40.5227 49.6128 40.4269 C 48.7228 40.3311 47.823 40.4624 46.9969 40.8085 C 46.8223 40.8894 46.6556 40.9865 46.499 41.0985 L 32.6055 49.2677 C 33.4534 48.8278 34.4059 48.6312 35.3581 48.6994 C 36.3103 48.7676 37.2253 49.0981 38.0023 49.6544 L 101.881 86.7139 C 104.521 88.4455 106.612 90.9003 107.904 93.7874 L 121.845 85.1188 Z" stroke-linecap="round"/>
</g>
		<g transform="matrix(1 0 0 1 -200.742 -236.4769)">
<path style="stroke: none; stroke-width: 1; stroke-dasharray: none; stroke-linecap: butt; stroke-dashoffset: 0; stroke-linejoin: miter; stroke-miterlimit: 4; is-custom-font: none; font-file-url: none; fill: rgb(0,0,0); fill-rule: nonzero; opacity: 0.6;" transform=" translate(-115.758, -132.5231)" d="M 110.04 173.482 C 110.04 176.704 109.012 178.944 107.39 179.927 L 121.187 171.871 C 122.986 170.92 124.126 168.648 124.126 165.184 V 93.9973 C 124.058 90.9011 123.278 87.8627 121.845 85.1191 L 107.904 93.7234 C 109.242 96.3859 109.972 99.3143 110.04 102.295 V 173.482 Z" stroke-linecap="round"/>
</g>
		<g transform="matrix(1 0 0 1 -246.5611 -254.238)">
<path style="stroke: none; stroke-width: 1; stroke-dasharray: none; stroke-linecap: butt; stroke-dashoffset: 0; stroke-linejoin: miter; stroke-miterlimit: 4; is-custom-font: none; font-file-url: none; fill: rgb(32,178,170); fill-rule: nonzero; opacity: 1;" transform=" translate(-69.9389, -114.7619)" d="M 89.1432 142.867 C 86.6857 138.807 84.2122 134.811 81.7547 130.718 C 81.365 129.943 80.82 129.257 80.154 128.702 C 79.488 128.148 78.7152 127.737 77.8838 127.495 C 76.6952 127.254 75.5067 126.98 74.2859 126.625 C 73.8512 126.444 73.4855 126.127 73.2419 125.723 C 69.2207 118.819 66.0237 111.464 63.7172 103.81 C 63.6681 103.646 63.6542 103.474 63.6764 103.304 C 63.6985 103.135 63.7562 102.972 63.8457 102.827 C 64.6006 102.069 65.4519 101.377 66.2229 100.7 C 66.9938 100.023 67.3954 98.4601 66.8332 96.4299 C 65.6446 92.1278 64.5043 87.8257 63.3157 83.5397 C 63.0857 82.3219 62.54 81.1863 61.7336 80.2472 C 60.9272 79.3081 59.8885 78.5987 58.722 78.1902 C 56.1318 77.4678 53.382 77.5691 50.8516 78.4802 C 49.8718 78.8508 49.3579 79.737 49.3418 81.2677 C 49.7594 84.2164 50.0325 87.1328 50.5946 90.1298 C 54.5566 111.742 64.0866 131.615 79.1848 149.747 C 79.579 150.349 80.1085 150.848 80.7307 151.207 C 81.3529 151.565 82.0503 151.772 82.7666 151.81 C 85.2663 151.75 87.6677 150.822 89.5608 149.183 C 90.9903 147.894 90.8458 145.606 89.1432 142.867 Z" stroke-linecap="round"/>
</g>
		<g transform="matrix(1 0 0 1 -233.1777 -258.7984)">
<path style="stroke: none; stroke-width: 1; stroke-dasharray: none; stroke-linecap: butt; stroke-dashoffset: 0; stroke-linejoin: miter; stroke-miterlimit: 4; is-custom-font: none; font-file-url: none; fill: rgb(32,178,170); fill-rule: nonzero; opacity: 1;" transform=" translate(-83.3223, -110.2016)" d="M 88.951 120.905 C 88.615 116.27 87.3417 111.753 85.2086 107.628 C 83.616 104.405 81.5893 101.418 79.1854 98.7497 C 78.559 98.0407 78.0289 97.8151 77.7077 98.3469 C 77.3865 98.8786 77.7077 99.6359 78.3181 100.329 L 78.9445 101.054 C 83.384 106.195 86.1818 112.555 86.9754 119.31 C 86.9676 119.802 87.0161 120.294 87.12 120.776 C 87.3217 121.33 87.6457 121.831 88.0676 122.242 C 88.4049 122.484 88.7904 122.242 89.0635 122.242 C 88.9671 121.582 88.9832 121.243 88.951 120.905 Z" stroke-linecap="round"/>
</g>
		<g transform="matrix(1 0 0 1 -239.6553 -257.4317)">
<path style="stroke: none; stroke-width: 1; stroke-dasharray: none; stroke-linecap: butt; stroke-dashoffset: 0; stroke-linejoin: miter; stroke-miterlimit: 4; is-custom-font: none; font-file-url: none; fill: rgb(32,178,170); fill-rule: nonzero; opacity: 1;" transform=" translate(-76.8447, -111.5683)" d="M 74.3987 107.677 C 76.4157 109.902 77.6413 112.735 77.8841 115.733 C 77.9899 116.189 78.1574 116.628 78.382 117.038 C 79.3618 117.844 79.8437 117.57 79.8437 116.555 C 79.5002 112.711 77.9155 109.085 75.3303 106.227 C 74.7199 105.598 74.222 105.405 73.9329 105.937 C 73.8289 106.24 73.8177 106.568 73.9007 106.878 C 73.9836 107.188 74.1571 107.466 74.3987 107.677 Z" stroke-linecap="round"/>
</g>
		<g transform="matrix(1 0 0 1 -246.5611 -254.238)">
<path style="stroke: none; stroke-width: 1; stroke-dasharray: none; stroke-linecap: butt; stroke-dashoffset: 0; stroke-linejoin: miter; stroke-miterlimit: 4; is-custom-font: none; font-file-url: none; fill: rgb(255,255,255); fill-rule: nonzero; opacity: 0.81;" transform=" translate(-69.9389, -114.7619)" d="M 89.1432 142.867 C 86.6857 138.807 84.2122 134.811 81.7547 130.718 C 81.365 129.943 80.82 129.257 80.154 128.702 C 79.488 128.148 78.7152 127.737 77.8838 127.495 C 76.6952 127.254 75.5067 126.98 74.2859 126.625 C 73.8512 126.444 73.4855 126.127 73.2419 125.723 C 69.2207 118.819 66.0237 111.464 63.7172 103.81 C 63.6681 103.646 63.6542 103.474 63.6764 103.304 C 63.6985 103.135 63.7562 102.972 63.8457 102.827 C 64.6006 102.069 65.4519 101.377 66.2229 100.7 C 66.9938 100.023 67.3954 98.4601 66.8332 96.4299 C 65.6446 92.1278 64.5043 87.8257 63.3157 83.5397 C 63.0857 82.3219 62.54 81.1863 61.7336 80.2472 C 60.9272 79.3081 59.8885 78.5987 58.722 78.1902 C 56.1318 77.4678 53.382 77.5691 50.8516 78.4802 C 49.8718 78.8508 49.3579 79.737 49.3418 81.2677 C 49.7594 84.2164 50.0325 87.1328 50.5946 90.1298 C 54.5566 111.742 64.0866 131.615 79.1848 149.747 C 79.579 150.349 80.1085 150.848 80.7307 151.207 C 81.3529 151.565 82.0503 151.772 82.7666 151.81 C 85.2663 151.75 87.6677 150.822 89.5608 149.183 C 90.9903 147.894 90.8458 145.606 89.1432 142.867 Z" stroke-linecap="round"/>
</g>
		<g transform="matrix(1 0 0 1 -233.1777 -258.7984)">
<path style="stroke: none; stroke-width: 1; stroke-dasharray: none; stroke-linecap: butt; stroke-dashoffset: 0; stroke-linejoin: miter; stroke-miterlimit: 4; is-custom-font: none; font-file-url: none; fill: rgb(255,255,255); fill-rule: nonzero; opacity: 0.81;" transform=" translate(-83.3223, -110.2016)" d="M 88.951 120.905 C 88.615 116.27 87.3417 111.753 85.2086 107.628 C 83.616 104.405 81.5893 101.418 79.1854 98.7497 C 78.559 98.0407 78.0289 97.8151 77.7077 98.3469 C 77.3865 98.8786 77.7077 99.6359 78.3181 100.329 L 78.9445 101.054 C 83.384 106.195 86.1818 112.555 86.9754 119.31 C 86.9676 119.802 87.0161 120.294 87.12 120.776 C 87.3217 121.33 87.6457 121.831 88.0676 122.242 C 88.4049 122.484 88.7904 122.242 89.0635 122.242 C 88.9671 121.582 88.9832 121.243 88.951 120.905 Z" stroke-linecap="round"/>
</g>
		<g transform="matrix(1 0 0 1 -239.6553 -257.4317)">
<path style="stroke: none; stroke-width: 1; stroke-dasharray: none; stroke-linecap: butt; stroke-dashoffset: 0; stroke-linejoin: miter; stroke-miterlimit: 4; is-custom-font: none; font-file-url: none; fill: rgb(255,255,255); fill-rule: nonzero; opacity: 0.81;" transform=" translate(-76.8447, -111.5683)" d="M 74.3987 107.677 C 76.4157 109.902 77.6413 112.735 77.8841 115.733 C 77.9899 116.189 78.1574 116.628 78.382 117.038 C 79.3618 117.844 79.8437 117.57 79.8437 116.555 C 79.5002 112.711 77.9155 109.085 75.3303 106.227 C 74.7199 105.598 74.222 105.405 73.9329 105.937 C 73.8289 106.24 73.8177 106.568 73.9007 106.878 C 73.9836 107.188 74.1571 107.466 74.3987 107.677 Z" stroke-linecap="round"/>
</g>
		<g transform="matrix(1 0 0 1 168.8905 -304.9771)">
<path style="stroke: none; stroke-width: 1; stroke-dasharray: none; stroke-linecap: butt; stroke-dashoffset: 0; stroke-linejoin: miter; stroke-miterlimit: 4; is-custom-font: none; font-file-url: none; fill: rgb(230,230,230); fill-rule: nonzero; opacity: 1;" transform=" translate(-485.3905, -64.0229)" d="M 443.71 35.6841 L 458.76 44.2722 V 38.9227 C 458.76 38.5521 458.76 38.1654 458.76 37.7948 C 458.76 37.4242 458.76 37.0698 458.76 36.7153 V 36.5219 C 459.306 29.4484 464.655 26.7253 471.176 30.5118 C 474.128 32.3335 476.658 34.7672 478.597 37.6498 C 480.058 27.9821 487.88 24.5662 497.341 30.0285 C 507.845 36.1191 516.358 50.9751 516.358 63.092 V 74.5321 C 516.343 75.4472 516.568 76.3502 517.011 77.1505 C 517.453 77.9509 518.098 78.6204 518.88 79.092 L 527.746 84.2965 C 529.66 85.4346 531.246 87.0515 532.349 88.989 C 533.453 90.9265 534.036 93.1183 534.042 95.3499 C 534.043 96.2757 533.8 97.1852 533.338 97.9869 C 532.877 98.7886 532.212 99.4541 531.413 99.9164 C 530.613 100.379 529.706 100.622 528.784 100.62 C 527.861 100.619 526.954 100.374 526.156 99.9098 L 443.935 52.2319 C 441.754 50.9612 439.942 49.14 438.68 46.9493 C 437.417 44.7587 436.748 42.2748 436.739 39.7445 C 436.738 38.9255 436.952 38.1206 437.359 37.4106 C 437.766 36.7006 438.352 36.1104 439.058 35.6991 C 439.764 35.2878 440.566 35.07 441.382 35.0673 C 442.199 35.0647 443.001 35.2774 443.71 35.6841 Z" stroke-linecap="round"/>
</g>
		<g transform="matrix(1 0 0 1 168.8905 -304.9771)">
<path style="stroke: none; stroke-width: 1; stroke-dasharray: none; stroke-linecap: butt; stroke-dashoffset: 0; stroke-linejoin: miter; stroke-miterlimit: 4; is-custom-font: none; font-file-url: none; fill: rgb(176,241,238); fill-rule: nonzero; opacity: 1;" transform=" translate(-485.3905, -64.0229)" d="M 443.71 35.6841 L 458.76 44.2722 V 38.9227 C 458.76 38.5521 458.76 38.1654 458.76 37.7948 C 458.76 37.4242 458.76 37.0698 458.76 36.7153 V 36.5219 C 459.306 29.4484 464.655 26.7253 471.176 30.5118 C 474.128 32.3335 476.658 34.7672 478.597 37.6498 C 480.058 27.9821 487.88 24.5662 497.341 30.0285 C 507.845 36.1191 516.358 50.9751 516.358 63.092 V 74.5321 C 516.343 75.4472 516.568 76.3502 517.011 77.1505 C 517.453 77.9509 518.098 78.6204 518.88 79.092 L 527.746 84.2965 C 529.66 85.4346 531.246 87.0515 532.349 88.989 C 533.453 90.9265 534.036 93.1183 534.042 95.3499 C 534.043 96.2757 533.8 97.1852 533.338 97.9869 C 532.877 98.7886 532.212 99.4541 531.413 99.9164 C 530.613 100.379 529.706 100.622 528.784 100.62 C 527.861 100.619 526.954 100.374 526.156 99.9098 L 443.935 52.2319 C 441.754 50.9612 439.942 49.14 438.68 46.9493 C 437.417 44.7587 436.748 42.2748 436.739 39.7445 C 436.738 38.9255 436.952 38.1206 437.359 37.4106 C 437.766 36.7006 438.352 36.1104 439.058 35.6991 C 439.764 35.2878 440.566 35.07 441.382 35.0673 C 442.199 35.0647 443.001 35.2774 443.71 35.6841 Z" stroke-linecap="round"/>
</g>
		<g transform="matrix(1 0 0 1 272.2575 -314.943)">
<path style="stroke: none; stroke-width: 1; stroke-dasharray: none; stroke-linecap: butt; stroke-dashoffset: 0; stroke-linejoin: miter; stroke-miterlimit: 4; is-custom-font: none; font-file-url: none; fill: rgb(230,230,230); fill-rule: nonzero; opacity: 1;" transform=" translate(-588.7575, -54.057)" d="M 558.44 33.4451 L 569.379 39.7452 V 35.8137 C 569.379 35.5397 569.379 35.2658 569.379 34.9919 C 569.379 34.718 569.379 34.4602 569.379 34.2024 V 34.1057 C 569.78 28.9657 573.667 26.9838 578.405 29.7391 C 580.551 31.058 582.391 32.8214 583.802 34.9113 C 584.878 27.9184 590.564 25.3887 597.439 29.3685 C 605.084 33.7996 611.268 44.5629 611.268 53.4089 V 61.7392 C 611.274 62.3922 611.448 63.0325 611.775 63.5974 C 612.102 64.1624 612.569 64.6325 613.131 64.9618 L 619.556 68.7483 C 620.954 69.573 622.112 70.7508 622.915 72.1643 C 623.718 73.5778 624.139 75.1777 624.134 76.8047 C 624.133 77.4711 623.958 78.1257 623.628 78.704 C 623.298 79.2823 622.824 79.7643 622.252 80.1026 C 621.679 80.4409 621.029 80.6238 620.365 80.6332 C 619.7 80.6426 619.045 80.4782 618.464 80.1562 L 558.601 45.4814 C 557.015 44.5608 555.698 43.2381 554.781 41.646 C 553.865 40.0539 553.382 38.2482 553.381 36.4098 C 553.38 35.8148 553.534 35.23 553.829 34.7136 C 554.124 34.1973 554.548 33.7676 555.061 33.4675 C 555.573 33.1674 556.154 33.0074 556.747 33.0035 C 557.341 32.9995 557.924 33.1518 558.44 33.4451 Z" stroke-linecap="round"/>
</g>
		<g transform="matrix(1 0 0 1 272.2575 -314.943)">
<path style="stroke: none; stroke-width: 1; stroke-dasharray: none; stroke-linecap: butt; stroke-dashoffset: 0; stroke-linejoin: miter; stroke-miterlimit: 4; is-custom-font: none; font-file-url: none; fill: rgb(176,241,238); fill-rule: nonzero; opacity: 1;" transform=" translate(-588.7575, -54.057)" d="M 558.44 33.4451 L 569.379 39.7452 V 35.8137 C 569.379 35.5397 569.379 35.2658 569.379 34.9919 C 569.379 34.718 569.379 34.4602 569.379 34.2024 V 34.1057 C 569.78 28.9657 573.667 26.9838 578.405 29.7391 C 580.551 31.058 582.391 32.8214 583.802 34.9113 C 584.878 27.9184 590.564 25.3887 597.439 29.3685 C 605.084 33.7996 611.268 44.5629 611.268 53.4089 V 61.7392 C 611.274 62.3922 611.448 63.0325 611.775 63.5974 C 612.102 64.1624 612.569 64.6325 613.131 64.9618 L 619.556 68.7483 C 620.954 69.573 622.112 70.7508 622.915 72.1643 C 623.718 73.5778 624.139 75.1777 624.134 76.8047 C 624.133 77.4711 623.958 78.1257 623.628 78.704 C 623.298 79.2823 622.824 79.7643 622.252 80.1026 C 621.679 80.4409 621.029 80.6238 620.365 80.6332 C 619.7 80.6426 619.045 80.4782 618.464 80.1562 L 558.601 45.4814 C 557.015 44.5608 555.698 43.2381 554.781 41.646 C 553.865 40.0539 553.382 38.2482 553.381 36.4098 C 553.38 35.8148 553.534 35.23 553.829 34.7136 C 554.124 34.1973 554.548 33.7676 555.061 33.4675 C 555.573 33.1674 556.154 33.0074 556.747 33.0035 C 557.341 32.9995 557.924 33.1518 558.44 33.4451 Z" stroke-linecap="round"/>
</g>
</g>
</g>
</svg>