<svg xmlns="http://www.w3.org/2000/svg" xmlns:svgjs="http://svgjs.com/svgjs" xmlns:xlink="http://www.w3.org/1999/xlink" width="288" height="288"><svg xmlns="http://www.w3.org/2000/svg" width="288" height="288" fill="none" viewBox="0 0 633 738"><path fill="#c5f1ef" d="M316.5 737.897C491.298 737.897 633 657.144 633 557.53C633 457.916 491.298 377.163 316.5 377.163C141.702 377.163 0 457.916 0 557.53C0 657.144 141.702 737.897 316.5 737.897Z" class="colorECF2FF svgShape"/><path fill="#87dad5" d="M448.208 671.253L211.953 534.407C209.875 533.206 208.149 531.477 206.948 529.393 205.748 527.31 205.116 524.946 205.116 522.54 205.116 520.134 205.748 517.77 206.948 515.687 208.149 513.604 209.875 511.874 211.953 510.673L235.259 495.93C239.282 493.605 243.843 492.382 248.486 492.382 253.129 492.382 257.69 493.605 261.713 495.93L498 632.792C500.078 633.993 501.804 635.723 503.004 637.806 504.205 639.889 504.837 642.253 504.837 644.659 504.837 647.065 504.205 649.429 503.004 651.513 501.804 653.596 500.078 655.325 498 656.526L474.694 671.253C470.669 673.59 466.101 674.821 461.451 674.821 456.801 674.821 452.233 673.59 448.208 671.253zM88.9835 546.492C117.299 546.492 140.253 533.269 140.253 516.958 140.253 500.646 117.299 487.423 88.9835 487.423 60.6681 487.423 37.7139 500.646 37.7139 516.958 37.7139 533.269 60.6681 546.492 88.9835 546.492z" class="colorDAE6FF svgShape"/><path fill="#20b2aa" d="M531.986 553.259L554.473 566.23C554.473 566.23 542.988 530.024 549.108 493.529C551.421 479.736 556.384 472.888 558.119 469.198C559.853 465.508 573.297 442.709 561.331 432.268C549.365 421.826 521.53 442.821 523.04 499.007C523.726 517.397 526.732 535.626 531.986 553.259Z" class="color407BFF svgShape"/><path fill="#000" d="M531.986 553.259L554.473 566.23C554.473 566.23 542.988 530.024 549.108 493.529C551.421 479.736 556.384 472.888 558.119 469.198C559.853 465.508 573.297 442.709 561.331 432.268C549.365 421.826 521.53 442.821 523.04 499.007C523.726 517.397 526.732 535.626 531.986 553.259Z" class="color000 svgShape" opacity=".5"/><path fill="#fff" d="M542.442 560.09C542.278 560.093 542.118 560.046 541.982 559.953C541.847 559.861 541.744 559.728 541.687 559.574C541.607 559.333 533.014 535.776 533.287 497.91C533.56 460.045 553.396 439.485 553.589 439.292C553.664 439.216 553.752 439.157 553.85 439.116C553.948 439.075 554.053 439.054 554.159 439.054C554.265 439.054 554.37 439.075 554.468 439.116C554.566 439.157 554.655 439.216 554.729 439.292C554.805 439.367 554.864 439.456 554.905 439.554C554.946 439.652 554.967 439.758 554.967 439.864C554.967 439.97 554.946 440.076 554.905 440.174C554.864 440.272 554.805 440.361 554.729 440.436C554.537 440.629 535.166 460.577 534.893 497.927C534.62 535.276 543.1 558.801 543.197 559.026C543.269 559.227 543.259 559.449 543.169 559.642C543.078 559.835 542.915 559.985 542.715 560.058C542.627 560.085 542.534 560.096 542.442 560.09Z" class="colorfff svgShape"/><path fill="#20b2aa" d="M541.366 558.801L572.109 576.525C575.312 578.425 579.111 579.043 582.749 578.258C586.387 577.473 589.596 575.341 591.737 572.288C593.771 569.111 594.63 565.319 594.162 561.572C592.684 545.556 585.745 541.867 594.242 534.729C602.739 527.591 604.955 527.091 604.474 520.227C603.992 513.363 599.318 510.366 597.101 507.659C594.885 504.952 588.749 499.28 592.925 490.902C597.101 482.523 602.803 474.418 594.162 470.712C589.006 468.489 580.413 471.453 574.759 477.609C569.105 483.764 564.447 488.195 559.034 489.677C553.622 491.159 542.346 491.401 542.828 500.763C543.31 510.124 545.783 513.331 543.567 517.504C539.391 525.303 521.225 529.734 541.366 558.801Z" class="color407BFF svgShape"/><path fill="#fff" d="M556.56 568.341C556.36 568.334 556.169 568.256 556.021 568.12C555.874 567.984 555.78 567.799 555.757 567.6C555.757 567.052 551.035 511.753 588.941 474.951C589.097 474.821 589.297 474.756 589.499 474.768C589.701 474.78 589.892 474.868 590.032 475.015C590.172 475.162 590.252 475.356 590.255 475.559C590.258 475.763 590.185 475.96 590.049 476.111C552.689 512.381 557.315 566.907 557.363 567.455C557.381 567.666 557.315 567.876 557.18 568.039C557.045 568.201 556.851 568.304 556.641 568.325L556.56 568.341Z" class="colorfff svgShape"/><path fill="#fff" d="M562.648 520.742C562.445 520.743 562.25 520.667 562.101 520.53 561.953 520.392 561.861 520.203 561.845 520.001 561.508 515.716 560.305 511.544 558.309 507.74 556.312 503.937 553.564 500.581 550.232 497.878 550.145 497.817 550.071 497.739 550.014 497.65 549.958 497.56 549.919 497.459 549.901 497.355 549.883 497.25 549.886 497.142 549.91 497.039 549.934 496.935 549.978 496.837 550.039 496.75 550.099 496.664 550.175 496.59 550.263 496.533 550.351 496.476 550.45 496.438 550.553 496.42 550.656 496.402 550.762 496.405 550.864 496.428 550.966 496.452 551.062 496.496 551.147 496.557 554.698 499.382 557.625 502.916 559.743 506.935 561.861 510.954 563.124 515.37 563.451 519.904 563.469 520.12 563.401 520.334 563.263 520.5 563.125 520.666 562.927 520.77 562.712 520.791L562.648 520.742zM560.03 530.233C559.835 530.235 559.647 530.167 559.5 530.04 559.34 529.897 559.243 529.698 559.228 529.484 559.213 529.271 559.281 529.059 559.419 528.896 559.805 528.445 569.297 517.939 591.543 520.727 591.754 520.755 591.945 520.866 592.074 521.035 592.204 521.204 592.261 521.418 592.234 521.629 592.206 521.842 592.096 522.035 591.928 522.167 591.76 522.3 591.547 522.361 591.334 522.338 569.972 519.647 560.704 529.863 560.608 529.959 560.535 530.042 560.446 530.108 560.346 530.155 560.247 530.202 560.139 530.229 560.03 530.233z" class="colorfff svgShape"/><path fill="#455a64" d="M441.012 654.901L233.235 534.554C218.57 526.062 206.685 503.279 206.685 483.67V37.3442C206.685 17.7349 218.57 8.7278 233.235 17.2193L441.012 137.566C455.676 146.057 467.562 168.841 467.562 188.45V634.776C467.562 654.369 455.676 663.392 441.012 654.901Z" class="color455A64 svgShape"/><path fill="#37474f" d="M464.944 123.531L257.151 3.18464C250.887 -0.440748 245.137 -0.859684 240.591 1.36389C240.035 1.64345 239.498 1.96109 238.985 2.31454L215.695 15.8977C220.385 13.0779 226.521 13.2874 233.251 17.1867L441.028 137.533C455.692 146.025 467.578 168.808 467.578 188.418V634.743C467.578 645.12 464.253 652.467 458.953 655.948L481.938 642.526C487.8 639.4 491.575 631.746 491.575 620.773V174.448C491.575 154.806 479.609 132.023 464.944 123.531Z" class="color37474F svgShape"/><path fill="#263238" d="M467.562 188.418V634.743C467.562 645.12 464.237 652.468 458.937 655.948L481.937 642.526C487.8 639.4 491.574 631.747 491.574 620.774V174.448L467.642 188.386L467.562 188.418Z" class="color263238 svgShape"/><path fill="#37474f" d="M491.495 209.074L467.562 222.931V233.759L491.495 219.886V209.074zM481.007 281.082C478.87 282.323 477.136 281.001 477.136 278.149V254.866C477.157 253.411 477.519 251.981 478.191 250.691 478.863 249.401 479.828 248.287 481.007 247.438 483.143 246.198 484.878 247.438 484.878 250.371V273.654C484.856 275.109 484.494 276.54 483.822 277.829 483.15 279.119 482.186 280.233 481.007 281.082z" class="color37474F svgShape"/><path fill="#455a64" d="M477.119 278.215V254.868C477.141 253.412 477.502 251.982 478.174 250.692C478.847 249.402 479.811 248.288 480.99 247.44C481.342 247.192 481.753 247.041 482.181 247.002C482.609 246.962 483.04 247.035 483.431 247.214L480.524 245.715C480.127 245.523 479.685 245.44 479.245 245.474C478.806 245.508 478.382 245.658 478.019 245.909C476.838 246.757 475.872 247.871 475.198 249.161C474.523 250.45 474.158 251.88 474.132 253.337V276.604C474.071 277.191 474.16 277.785 474.391 278.329C474.621 278.873 474.985 279.349 475.449 279.713L478.484 281.325C478.001 280.976 477.62 280.503 477.38 279.956C477.14 279.41 477.05 278.808 477.119 278.215Z" class="color455A64 svgShape"/><path fill="#37474f" d="M481.007 337.428C478.87 338.669 477.136 337.428 477.136 334.496V311.213C477.159 309.758 477.521 308.328 478.193 307.038C478.865 305.748 479.829 304.634 481.007 303.785C483.143 302.544 484.878 303.785 484.878 306.733V330C484.858 331.456 484.498 332.887 483.826 334.178C483.153 335.468 482.188 336.582 481.007 337.428Z" class="color37474F svgShape"/><path fill="#455a64" d="M477.119 334.496V311.213C477.142 309.758 477.504 308.328 478.176 307.038C478.848 305.748 479.812 304.634 480.99 303.785C481.344 303.542 481.754 303.394 482.181 303.354C482.609 303.315 483.039 303.385 483.431 303.559L480.524 302.045C480.129 301.844 479.686 301.756 479.244 301.79C478.803 301.824 478.379 301.979 478.018 302.238C476.836 303.084 475.867 304.197 475.192 305.487C474.517 306.777 474.154 308.209 474.131 309.666V332.997C474.07 333.585 474.158 334.179 474.389 334.723C474.619 335.267 474.984 335.744 475.448 336.107L478.484 337.718C477.981 337.361 477.587 336.87 477.346 336.301C477.105 335.732 477.026 335.107 477.119 334.496Z" class="color455A64 svgShape"/><path fill="#20b2aa" d="M433.752 150.085L229.573 31.7846C228.72 31.2928 227.755 31.0331 226.772 31.0313C225.789 31.0294 224.822 31.2855 223.968 31.7741C223.114 32.2627 222.403 32.9668 221.904 33.8166C221.405 34.6664 221.136 35.6323 221.124 36.6184V483.669C221.124 498.589 231.677 516.91 244.558 524.37L443.726 639.786C444.671 640.331 445.742 640.618 446.831 640.617C447.921 640.616 448.991 640.328 449.935 639.781C450.879 639.234 451.662 638.448 452.208 637.502C452.753 636.555 453.041 635.481 453.042 634.388V183.648C453.122 171.338 444.417 156.24 433.752 150.085Z" class="color407BFF svgShape"/><path fill="#fff" d="M433.752 150.085L229.573 31.7846C228.72 31.2928 227.755 31.0331 226.772 31.0313C225.789 31.0294 224.822 31.2855 223.968 31.7741C223.114 32.2627 222.403 32.9668 221.904 33.8166C221.405 34.6664 221.136 35.6323 221.124 36.6184V483.669C221.124 498.589 231.677 516.91 244.558 524.37L443.726 639.786C444.671 640.331 445.742 640.618 446.831 640.617C447.921 640.616 448.991 640.328 449.935 639.781C450.879 639.234 451.662 638.448 452.208 637.502C452.753 636.555 453.041 635.481 453.042 634.388V183.648C453.122 171.338 444.417 156.24 433.752 150.085Z" class="colorfff svgShape" opacity=".9"/><path fill="#455a64" d="M290.641 62.6729L293.805 76.0304L361.49 115.185L373.183 108.933L290.641 62.6729Z" class="color455A64 svgShape"/><path fill="#263238" d="M310.541 75.5792C310.541 77.8028 308.935 78.689 307.072 77.5933 306.071 76.9272 305.241 76.035 304.647 74.9884 304.052 73.9418 303.711 72.77 303.65 71.5672 303.65 69.3597 305.257 68.4574 307.12 69.5692 308.12 70.2319 308.95 71.1211 309.545 72.1651 310.139 73.2091 310.48 74.3786 310.541 75.5792zM356.141 103.857C355.771 103.855 355.407 103.76 355.081 103.584L320.516 84.2482C320.028 83.9607 319.671 83.4931 319.522 82.9454 319.373 82.3977 319.443 81.8132 319.718 81.3168 319.992 80.8204 320.45 80.4514 320.992 80.2886 321.534 80.1258 322.118 80.1821 322.62 80.4455L357.201 99.7809C357.621 100.015 357.952 100.383 358.141 100.827 358.33 101.27 358.367 101.765 358.246 102.231 358.124 102.698 357.852 103.111 357.471 103.406 357.09 103.7 356.622 103.859 356.141 103.857z" class="color263238 svgShape"/><path fill="#20b2aa" d="M263.945 124.821C261.841 123.596 260.315 124.659 260.315 127.35 260.315 128.696 260.647 130.021 261.28 131.207 261.913 132.393 262.829 133.404 263.945 134.15 264.543 134.514 265.23 134.707 265.929 134.707 266.629 134.707 267.315 134.514 267.913 134.15L271.27 140.241C270.089 140.894 268.75 141.206 267.403 141.14 266.055 141.075 264.753 140.635 263.64 139.87 260.913 138.196 258.639 135.874 257.02 133.108 255.401 130.343 254.486 127.22 254.356 124.015 254.356 118.037 258.356 115.959 263.865 119.181 266.976 121.191 269.525 123.964 271.27 127.238L267.913 129.912C267.085 127.88 265.712 126.117 263.945 124.821zM290.593 145.01C290.593 151.036 286.529 153.066 280.956 149.844 278.15 148.162 275.803 145.811 274.122 143 272.44 140.189 271.477 137.005 271.318 133.731 271.318 127.705 275.382 125.675 280.956 128.897 283.767 130.571 286.12 132.92 287.802 135.733 289.485 138.545 290.443 141.733 290.593 145.01zM277.277 137.324C277.305 138.708 277.661 140.065 278.314 141.283 278.968 142.502 279.901 143.547 281.036 144.333 283.028 145.493 284.634 144.333 284.634 141.594 284.628 140.242 284.299 138.911 283.672 137.713 283.046 136.516 282.142 135.487 281.036 134.714 279.012 133.538 277.277 134.537 277.277 137.324zM297.065 138.613L304.003 153.115V142.674L309.256 145.719V166.037L304.437 163.234 297.53 148.861V159.238L292.246 156.176V135.81L297.065 138.613zM326.427 155.612V160.929L321.415 158.028V173.046L315.617 169.678V154.661L310.638 151.777V146.476L326.427 155.612zM337.733 179.62L331.148 175.801 330.249 178.153 324.306 174.705 331.71 158.673 337.669 162.121 344.801 186.58 338.617 183.003 337.733 179.62zM336.304 173.98L334.505 167.035 332.658 171.869 336.304 173.98zM354.005 176.978C351.901 175.769 350.375 176.817 350.375 179.524 350.378 180.869 350.71 182.193 351.343 183.378 351.976 184.564 352.89 185.575 354.005 186.323 354.607 186.684 355.295 186.874 355.997 186.874 356.698 186.874 357.386 186.684 357.988 186.323L361.345 192.414C360.159 193.06 358.819 193.367 357.471 193.302 356.123 193.237 354.818 192.801 353.7 192.043 350.97 190.368 348.695 188.043 347.076 185.275 345.456 182.506 344.543 179.38 344.416 176.172 344.416 170.194 348.431 168.116 353.925 171.338 357.032 173.358 359.583 176.128 361.345 179.395L357.988 182.053C357.142 180.032 355.766 178.278 354.005 176.978zM377.181 185.018V190.319L372.17 187.419V202.484L366.372 199.117V184.099L361.393 181.215V175.914L377.181 185.018zM394.32 209.96C395.75 210.782 396.842 210.138 396.842 208.124V196.409L402.657 199.761V211.475C402.657 216.873 399.444 218.484 394.304 215.535 391.828 214.156 389.747 212.162 388.259 209.744 386.771 207.326 385.927 204.566 385.808 201.727V190.013L391.622 193.38V205.094C391.644 206.064 391.902 207.014 392.372 207.862 392.842 208.71 393.511 209.43 394.32 209.96zM412.02 210.025C411.361 209.654 410.944 209.638 410.944 210.251 410.944 212.796 420.019 216.47 420.019 223.834 420.019 228.345 416.597 228.361 412.646 226.073 409.173 223.938 406.181 221.102 403.86 217.743L406.013 213.94C407.779 216.684 410.046 219.067 412.694 220.966 413.546 221.465 414.092 221.465 414.092 220.74 414.092 218.098 405.001 214.585 405.001 207.447 405.001 203.387 407.956 202.613 412.518 205.191 415.456 206.974 418.042 209.285 420.147 212.007L418.043 215.906C416.305 213.686 414.279 211.708 412.02 210.025zM234.728 224.946C241.245 216.917 244.526 206.729 243.922 196.392 243.319 186.055 238.876 176.32 231.47 169.108 224.063 161.896 214.231 157.731 203.914 157.434 193.596 157.137 183.542 160.73 175.735 167.504 167.929 174.278 162.937 183.741 161.743 194.026 160.55 204.311 163.243 214.671 169.29 223.063 175.338 231.454 184.301 237.267 194.41 239.355 204.52 241.442 215.043 239.653 223.902 234.34L244.012 243.106 234.728 224.946z" class="color407BFF svgShape"/><path fill="#000" d="M234.728 224.946C241.245 216.917 244.526 206.729 243.922 196.392C243.319 186.055 238.876 176.32 231.47 169.108C224.063 161.896 214.231 157.731 203.914 157.434C193.596 157.137 183.542 160.73 175.735 167.504C167.929 174.278 162.937 183.741 161.743 194.026C160.55 204.311 163.243 214.671 169.29 223.063C175.338 231.454 184.301 237.267 194.41 239.355C204.52 241.442 215.043 239.653 223.902 234.34L244.012 243.106L234.728 224.946Z" class="color000 svgShape" opacity=".4"/><path fill="#fff" d="M187.442 196.588C187.442 195.959 186.992 195.605 186.173 195.605 184.273 195.855 182.498 196.694 181.097 198.006L178.816 193.559C181.217 191.746 184.117 190.722 187.12 190.626 190.975 190.626 193.899 192.656 193.899 195.685 193.899 197.845 192.292 199.923 190.236 202.002L187.361 204.854H194.156V209.591H179.555V205.708L186.06 198.956C186.761 198.335 187.245 197.505 187.442 196.588zM206.041 190.899L201.608 201.566H203.423V197.973H209.013V201.566H211.133V205.965H209.013V209.59H203.423V205.965H195.473V201.969L200.291 190.899H206.041zM228.384 200.293V209.59H222.409V202.017C222.443 201.771 222.425 201.52 222.354 201.281 222.283 201.042 222.163 200.821 222 200.633 221.837 200.446 221.636 200.295 221.41 200.192 221.184 200.089 220.938 200.035 220.69 200.035 219.518 200.035 218.779 200.954 218.779 202.372V209.59H212.804V189.836H218.779V197.103C219.246 196.362 219.898 195.755 220.669 195.343 221.441 194.93 222.306 194.726 223.18 194.75 223.896 194.732 224.608 194.865 225.269 195.142 225.93 195.418 226.526 195.831 227.017 196.354 227.508 196.878 227.884 197.499 228.119 198.178 228.355 198.856 228.445 199.577 228.384 200.293z" class="colorfff svgShape"/><path fill="#20b2aa" d="M423.216 350.014V550.216C423.219 552.48 422.628 554.705 421.501 556.668C420.375 558.63 418.753 560.26 416.799 561.393C414.845 562.527 412.628 563.124 410.371 563.125C408.114 563.126 405.896 562.53 403.941 561.398L296.455 499.138L277.405 488.117C270.846 484.312 265.397 478.847 261.603 472.267C257.809 465.687 255.803 458.224 255.786 450.622V250.404C255.783 248.14 256.374 245.915 257.501 243.953C258.627 241.99 260.249 240.36 262.203 239.227C264.157 238.093 266.374 237.496 268.631 237.495C270.888 237.494 273.106 238.09 275.06 239.222L401.628 312.519C408.191 316.318 413.641 321.783 417.43 328.365C421.219 334.947 423.215 342.413 423.216 350.014Z" class="color407BFF svgShape"/><path fill="#fff" d="M423.216 350.014V550.216C423.219 552.48 422.628 554.705 421.501 556.668C420.375 558.63 418.753 560.26 416.799 561.393C414.845 562.527 412.628 563.124 410.371 563.125C408.114 563.126 405.896 562.53 403.941 561.398L296.455 499.138L277.405 488.117C270.846 484.312 265.397 478.847 261.603 472.267C257.809 465.687 255.803 458.224 255.786 450.622V250.404C255.783 248.14 256.374 245.915 257.501 243.953C258.627 241.99 260.249 240.36 262.203 239.227C264.157 238.093 266.374 237.496 268.631 237.495C270.888 237.494 273.106 238.09 275.06 239.222L401.628 312.519C408.191 316.318 413.641 321.783 417.43 328.365C421.219 334.947 423.215 342.413 423.216 350.014Z" class="colorfff svgShape" opacity=".5"/><path fill="#263238" d="M361.296 468.475C361.296 468.475 381.422 501.957 366.886 539.709L296.406 499.137 361.296 468.475zM393.394 318.042C394.917 305.633 386.124 294.335 373.754 292.807 361.384 291.279 350.121 300.1 348.598 312.509 347.075 324.918 355.868 336.216 368.238 337.744 380.608 339.272 391.87 330.451 393.394 318.042zM371.111 251.773C371.111 251.773 378.034 240.495 380.154 241.316 382.274 242.138 378.773 252.885 378.773 252.885 378.773 252.885 389.245 255.077 387.302 257.719 385.358 260.362 372.557 259.733 372.557 259.733L371.111 251.773z" class="color263238 svgShape"/><path fill="#263238" d="M375.929 280.841C371.111 317.16 340.593 317.16 340.593 317.16L276.667 288.93C276.667 288.93 271.848 284.692 270.371 274.96C269.804 270.974 269.804 266.927 270.371 262.94C270.371 262.94 270.371 262.859 270.371 262.827C272.41 247.552 283.798 231.133 308.598 226.09C314.033 224.989 319.565 224.449 325.11 224.479C327.792 224.469 330.473 224.604 333.14 224.881C352.415 226.783 365.923 235.806 372.364 249.84C373.812 253.008 374.89 256.333 375.576 259.75C376.883 266.709 377.003 273.841 375.929 280.841Z" class="color263238 svgShape"/><path fill="#20b2aa" d="M222.458 351.092C222.458 351.092 199.762 350.303 191.024 372.49C191.024 372.49 200.662 379.016 213.302 372.49C225.943 365.965 222.458 351.092 222.458 351.092Z" class="color407BFF svgShape"/><path fill="#000" d="M222.458 351.092C222.458 351.092 199.762 350.303 191.024 372.49C191.024 372.49 200.662 379.016 213.302 372.49C225.943 365.965 222.458 351.092 222.458 351.092Z" class="color000 svgShape" opacity=".5"/><path fill="#945959" d="M221.815 361.776C221.815 361.776 215.391 333.772 212.001 333.434C208.612 333.096 207.954 341.974 208.227 346.985L200.196 329.647C199.941 329.109 199.579 328.628 199.132 328.235C198.685 327.842 198.162 327.545 197.597 327.362C197.031 327.18 196.434 327.115 195.842 327.173C195.25 327.231 194.677 327.409 194.157 327.698C186.126 332.129 172.039 345.599 201.738 378.904L221.815 361.776Z" class="color945959 svgShape"/><path fill="#20b2aa" d="M304.052 342.409L299.234 341.78C294.378 341.134 289.438 341.797 284.921 343.7C280.405 345.603 276.475 348.677 273.535 352.608L244.864 390.892L222.377 351.093C222.377 351.093 219.679 378.163 190.944 372.491L221.799 424.584C223.752 427.882 226.47 430.658 229.722 432.676C232.974 434.693 236.663 435.893 240.477 436.173C244.29 436.453 248.114 435.805 251.624 434.284C255.135 432.763 258.226 430.413 260.637 427.436L287.043 394.872L304.052 342.409Z" class="color407BFF svgShape"/><path fill="#20b2aa" d="M365.248 431.754C358.824 448.092 358.117 451.283 362.036 459.452C364.765 465.485 366.917 471.765 368.461 478.207C368.461 478.207 338.682 511.69 296.295 499.154L277.245 488.133C273.283 485.841 269.715 482.925 266.676 479.496L272.475 436.12C272.767 433.837 272.536 431.517 271.8 429.337L265.713 411.436C262.742 402.692 262.3 393.284 264.438 384.299C266.575 375.314 271.205 367.119 277.791 360.664L298.254 340.604L351.997 347.5L360.028 349.804C365.286 351.329 369.818 354.707 372.792 359.316C375.767 363.924 376.983 369.455 376.219 374.892C373.584 393.905 369.28 421.49 365.248 431.754Z" class="color407BFF svgShape"/><path fill="#000" d="M365.248 431.754C358.824 448.092 358.117 451.283 362.036 459.452C364.765 465.485 366.917 471.765 368.461 478.207C368.461 478.207 338.682 511.69 296.295 499.154L277.245 488.133C273.283 485.841 269.715 482.925 266.676 479.496L272.475 436.12C272.767 433.837 272.536 431.517 271.8 429.337L265.713 411.436C262.742 402.692 262.3 393.284 264.438 384.299C266.575 375.314 271.205 367.119 277.791 360.664L298.254 340.604L351.997 347.5L360.028 349.804C365.286 351.329 369.818 354.707 372.792 359.316C375.767 363.924 376.983 369.455 376.219 374.892C373.584 393.905 369.28 421.49 365.248 431.754Z" class="color000 svgShape" opacity=".5"/><path fill="#20b2aa" d="M332.835 382.948L322.073 373.748C320.933 372.77 319.559 372.107 318.086 371.824C316.613 371.542 315.092 371.649 313.673 372.137L300.663 376.632L298.912 369.317C298.639 368.179 298.138 367.108 297.441 366.169C296.744 365.23 295.865 364.442 294.856 363.854C293.848 363.265 292.731 362.887 291.573 362.744C290.415 362.6 289.24 362.693 288.118 363.017L282.48 364.628L292.021 346.292C295.136 340.32 299.935 335.399 305.818 332.144L309.561 330.082L340.48 331.693C340.48 331.693 351.996 336.527 351.996 347.403L332.835 382.852" class="color407BFF svgShape"/><path fill="#945959" d="M340.61 345.438L309.61 369.672V292.508H340.61V345.438Z" class="color945959 svgShape"/><path fill="#945959" d="M310.091 339.074L300.663 376.698L340.481 345.439L310.091 339.074Z" class="color945959 svgShape"/><path fill="#703838" d="M309.61 333.483C316.503 330.915 322.804 326.969 328.13 321.883C333.456 316.798 337.697 310.679 340.593 303.9V292.508H309.594L309.61 333.483Z" class="color703838 svgShape"/><path fill="#945959" d="M316.291 235.322C304.534 235.322 279.542 241.896 276.65 272.768C273.759 303.641 276.554 327.552 292.423 329.872C308.292 332.193 345.171 320.64 350.118 280.68C355.065 240.72 327.743 235.322 316.291 235.322Z" class="color945959 svgShape"/><path fill="#703838" d="M297.788 285.836V304.027L287.155 300.756L297.788 285.836Z" class="color703838 svgShape"/><path fill="#263238" d="M309.61 292.684C311.651 292.684 313.304 291.025 313.304 288.978 313.304 286.932 311.651 285.272 309.61 285.272 307.57 285.272 305.916 286.932 305.916 288.978 305.916 291.025 307.57 292.684 309.61 292.684zM288.986 286.4C288.983 287.132 288.764 287.847 288.356 288.454 287.948 289.062 287.37 289.534 286.694 289.812 286.019 290.09 285.277 290.161 284.561 290.016 283.846 289.872 283.189 289.517 282.674 288.998 282.159 288.48 281.809 287.819 281.667 287.101 281.526 286.382 281.6 285.638 281.88 284.962 282.16 284.286 282.634 283.708 283.241 283.301 283.848 282.895 284.562 282.678 285.292 282.678 285.778 282.678 286.26 282.774 286.709 282.961 287.159 283.149 287.567 283.423 287.91 283.769 288.253 284.115 288.525 284.525 288.71 284.977 288.894 285.428 288.988 285.912 288.986 286.4zM280.779 278.666L288.007 274.364C288.007 274.364 285.244 271.48 282.482 273.204 279.719 274.928 280.779 278.666 280.779 278.666z" class="color263238 svgShape"/><path fill="#703838" d="M292.793 311.408C296.313 311.666 299.816 310.723 302.735 308.733C302.735 308.733 303.426 314.002 299.025 315.001C294.624 316 292.793 311.408 292.793 311.408Z" class="color703838 svgShape"/><path fill="#263238" d="M286.48 245.828C286.48 245.828 290.897 288.447 348.672 289.784C348.672 289.784 366.132 247.423 331.631 233.663C297.13 219.903 286.48 245.828 286.48 245.828Z" class="color263238 svgShape"/><path fill="#20b2aa" d="M365.682 283.403L358.582 279.278C355.884 277.667 352.158 277.893 348.03 280.277C339.838 285.015 333.188 296.568 333.188 306.058C333.188 310.811 334.795 314.114 337.557 315.726L344.528 319.754L344.93 319.979L345.171 320.124C347.805 321.414 351.322 321.107 355.193 318.868C363.385 314.034 370.034 302.578 370.034 293.087C369.986 288.286 368.332 284.966 365.682 283.403Z" class="color407BFF svgShape"/><path fill="#20b2aa" d="M365.626 307.672C371.418 297.607 371.419 286.728 365.626 283.373C359.834 280.019 350.442 285.458 344.65 295.523C338.857 305.588 338.857 316.467 344.649 319.822C350.442 323.176 359.833 317.737 365.626 307.672Z" class="color407BFF svgShape"/><path fill="#000" d="M365.626 307.672C371.418 297.607 371.419 286.728 365.626 283.373C359.834 280.019 350.442 285.458 344.65 295.523C338.857 305.588 338.857 316.467 344.649 319.822C350.442 323.176 359.833 317.737 365.626 307.672Z" class="color000 svgShape" opacity=".5"/><path fill="#20b2aa" d="M368.525 292.346L363.707 289.526C361.876 288.431 359.322 288.576 356.495 290.203C353.542 292.139 351.084 294.745 349.321 297.81C347.557 300.875 346.538 304.313 346.344 307.847C346.344 311.069 347.484 313.373 349.331 314.437L354.15 317.192C354.235 317.255 354.327 317.309 354.423 317.353L354.584 317.45C355.713 317.88 356.93 318.025 358.129 317.873C359.327 317.722 360.47 317.278 361.458 316.58C364.409 314.645 366.865 312.042 368.628 308.98C370.392 305.918 371.413 302.483 371.609 298.952C371.481 295.682 370.356 293.41 368.525 292.346Z" class="color407BFF svgShape"/><path fill="#20b2aa" d="M371.48 298.92C371.284 302.451 370.263 305.886 368.5 308.948C366.736 312.01 364.28 314.613 361.329 316.548C355.708 319.77 351.162 317.16 351.162 310.667C351.353 307.133 352.373 303.694 354.14 300.631C355.907 297.567 358.37 294.966 361.329 293.039C366.935 289.784 371.48 292.411 371.48 298.92Z" class="color407BFF svgShape"/><path fill="#000" d="M371.48 298.92C371.284 302.451 370.263 305.886 368.5 308.948C366.736 312.01 364.28 314.613 361.329 316.548C355.708 319.77 351.162 317.16 351.162 310.667C351.353 307.133 352.373 303.694 354.14 300.631C355.907 297.567 358.37 294.966 361.329 293.039C366.935 289.784 371.48 292.411 371.48 298.92Z" class="color000 svgShape" opacity=".3"/><path fill="#20b2aa" d="M343.629 227.008C339.025 223.44 333.385 221.477 327.567 221.417H326.138C320.246 221.353 314.364 221.893 308.582 223.028 309.642 223.028 310.702 223.028 311.794 223.028H308.582V226.025H311.57C321.866 226.377 331.622 230.73 338.777 238.166 345.932 245.602 349.924 255.538 349.909 265.872V278.553C349.909 279.055 350.013 279.55 350.216 280.008 350.419 280.467 350.716 280.877 351.087 281.212 351.458 281.548 351.895 281.802 352.37 281.957 352.845 282.113 353.347 282.166 353.844 282.114H354.214L357.426 281.115C357.212 281.183 356.991 281.226 356.768 281.244 357.725 281.114 358.602 280.634 359.23 279.897 359.858 279.16 360.194 278.217 360.173 277.248V265.486C360.141 244.201 350.969 232.761 343.629 227.008zM323.407 328.986C322.082 328.986 320.773 328.7 319.568 328.148L309.53 323.491C309.373 323.435 309.229 323.347 309.108 323.232 308.987 323.117 308.89 322.978 308.826 322.824 308.761 322.67 308.728 322.504 308.731 322.337 308.733 322.169 308.77 322.004 308.839 321.852 308.908 321.7 309.008 321.564 309.132 321.452 309.257 321.341 309.403 321.256 309.561 321.205 309.72 321.153 309.887 321.134 310.053 321.151 310.219 321.167 310.38 321.218 310.525 321.3L320.564 325.957C321.844 326.554 323.279 326.735 324.667 326.475 326.055 326.215 327.327 325.527 328.306 324.506L337.943 314.517C338.169 314.29 338.475 314.163 338.794 314.163 339.114 314.163 339.42 314.29 339.646 314.517 339.867 314.745 339.992 315.052 339.992 315.37 339.992 315.689 339.867 315.996 339.646 316.224L330.009 326.214C329.151 327.098 328.124 327.799 326.989 328.275 325.855 328.751 324.637 328.993 323.407 328.986z" class="color407BFF svgShape"/><path fill="#000" d="M323.407 328.986C322.082 328.986 320.773 328.7 319.568 328.148L309.53 323.491C309.373 323.435 309.229 323.347 309.108 323.232C308.987 323.117 308.89 322.978 308.826 322.824C308.761 322.67 308.728 322.504 308.731 322.337C308.733 322.169 308.77 322.004 308.839 321.852C308.908 321.7 309.008 321.564 309.132 321.452C309.257 321.341 309.403 321.256 309.561 321.205C309.72 321.153 309.887 321.134 310.053 321.151C310.219 321.167 310.38 321.218 310.525 321.3L320.564 325.957C321.844 326.554 323.279 326.735 324.667 326.475C326.055 326.215 327.327 325.527 328.306 324.506L337.943 314.517C338.169 314.29 338.475 314.163 338.794 314.163C339.114 314.163 339.42 314.29 339.646 314.517C339.867 314.745 339.992 315.052 339.992 315.37C339.992 315.689 339.867 315.996 339.646 316.224L330.009 326.214C329.151 327.098 328.124 327.799 326.989 328.275C325.855 328.751 324.637 328.993 323.407 328.986Z" class="color000 svgShape" opacity=".5"/><path fill="#20b2aa" d="M312.163 320.108C312.163 321.039 311.888 321.948 311.373 322.722C310.858 323.496 310.125 324.099 309.268 324.455C308.411 324.811 307.468 324.904 306.558 324.723C305.648 324.541 304.813 324.093 304.157 323.435C303.501 322.777 303.054 321.939 302.873 321.026C302.692 320.113 302.785 319.167 303.14 318.308C303.495 317.448 304.096 316.713 304.868 316.196C305.639 315.679 306.546 315.403 307.473 315.403C308.717 315.403 309.91 315.899 310.79 316.781C311.669 317.664 312.163 318.86 312.163 320.108Z" class="color407BFF svgShape"/><path fill="#000" d="M312.163 320.108C312.163 321.039 311.888 321.948 311.373 322.722C310.858 323.496 310.125 324.099 309.268 324.455C308.411 324.811 307.468 324.904 306.558 324.723C305.648 324.541 304.813 324.093 304.157 323.435C303.501 322.777 303.054 321.939 302.873 321.026C302.692 320.113 302.785 319.167 303.14 318.308C303.495 317.448 304.096 316.713 304.868 316.196C305.639 315.679 306.546 315.403 307.473 315.403C308.717 315.403 309.91 315.899 310.79 316.781C311.669 317.664 312.163 318.86 312.163 320.108Z" class="color000 svgShape" opacity=".5"/><path fill="#20b2aa" d="M360.14 265.486V277.248C360.161 278.217 359.825 279.16 359.197 279.897C358.569 280.634 357.693 281.114 356.735 281.244C356.206 281.301 355.671 281.245 355.165 281.08C354.659 280.916 354.193 280.646 353.797 280.289C353.402 279.932 353.086 279.495 352.87 279.007C352.654 278.519 352.542 277.991 352.543 277.458V265.486C352.552 259.772 351.409 254.116 349.182 248.857C346.955 243.598 343.691 238.845 339.585 234.885C335.48 230.924 330.618 227.838 325.293 225.812C319.968 223.785 314.289 222.86 308.598 223.093C314.38 221.958 320.262 221.418 326.153 221.482H327.551C333.369 221.542 339.008 223.505 343.613 227.073C350.969 232.761 360.14 244.201 360.14 265.486Z" class="color407BFF svgShape"/><path fill="#000" d="M360.14 265.486V277.248C360.161 278.217 359.825 279.16 359.197 279.897C358.569 280.634 357.693 281.114 356.735 281.244C356.206 281.301 355.671 281.245 355.165 281.08C354.659 280.916 354.193 280.646 353.797 280.289C353.402 279.932 353.086 279.495 352.87 279.007C352.654 278.519 352.542 277.991 352.543 277.458V265.486C352.552 259.772 351.409 254.116 349.182 248.857C346.955 243.598 343.691 238.845 339.585 234.885C335.48 230.924 330.618 227.838 325.293 225.812C319.968 223.785 314.289 222.86 308.598 223.093C314.38 221.958 320.262 221.418 326.153 221.482H327.551C333.369 221.542 339.008 223.505 343.613 227.073C350.969 232.761 360.14 244.201 360.14 265.486Z" class="color000 svgShape" opacity=".5"/><path fill="#20b2aa" d="M342.087 487.15C342.087 487.15 334.313 508.628 362.1 518.296C362.1 518.296 371.175 504.922 362.1 493.981C353.025 483.041 342.087 487.15 342.087 487.15Z" class="color407BFF svgShape"/><path fill="#000" d="M342.087 487.15C342.087 487.15 334.313 508.628 362.1 518.296C362.1 518.296 371.175 504.922 362.1 493.981C353.025 483.041 342.087 487.15 342.087 487.15Z" class="color000 svgShape" opacity=".7"/><path fill="#945959" d="M351.837 488.134C351.837 488.134 324.692 498.108 324.837 501.975C324.982 505.842 336.369 503.199 336.369 503.199L332.209 505.938C327.829 508.806 324.436 512.958 322.492 517.83C322.068 518.904 322.053 520.097 322.45 521.182C322.847 522.267 323.628 523.167 324.644 523.711L334.956 529.189C335.538 529.499 336.177 529.689 336.833 529.747C337.49 529.805 338.152 529.73 338.779 529.528C339.406 529.325 339.987 528.998 340.486 528.566C340.986 528.134 341.393 527.607 341.686 527.014C342.261 525.875 343.055 524.861 344.023 524.031C344.99 523.202 346.112 522.572 347.324 522.18C352.929 520.311 363.386 514.929 367.578 500.202L351.837 488.134Z" class="color945959 svgShape"/><path fill="#20b2aa" d="M359.98 349.771C359.98 349.771 345.524 357.828 353.202 382.287 360.879 406.746 375.287 444.692 375.287 444.692L342.087 487.149C345.634 487.579 349.051 488.753 352.114 490.597 355.178 492.44 357.82 494.911 359.867 497.848 361.829 500.835 363.054 504.247 363.442 507.802 363.83 511.357 363.37 514.954 362.1 518.296L403.315 465.123C407.126 460.209 409.657 454.42 410.678 448.279 411.699 442.137 411.177 435.838 409.161 429.949L391.493 378.194C389.334 371.872 385.745 366.138 381.008 361.439 376.271 356.74 370.514 353.204 364.188 351.109L359.98 349.771zM115.967 205.289L52.0885 168.229C51.3534 167.718 50.5029 167.399 49.6139 167.3 48.7249 167.202 47.8254 167.327 46.9969 167.665 46.8223 167.746 46.6556 167.843 46.499 167.955L32.6054 176.124H32.7018C30.951 177.123 29.8428 179.444 29.8428 182.763V254.046C29.8428 260.072 33.4888 267.081 38.0022 269.691L101.88 306.751C102.691 307.339 103.656 307.675 104.655 307.718 105.654 307.761 106.644 307.509 107.502 306.993 107.459 307.01 107.42 307.038 107.39 307.073L121.187 299.017C122.986 298.05 124.126 295.698 124.126 292.33V220.934C124.126 214.908 120.544 207.899 115.967 205.289z" class="color407BFF svgShape"/><path fill="#20b2aa" d="M121.845 212.04C120.553 209.283 118.517 206.944 115.967 205.289L52.0886 168.229C51.3535 167.718 50.503 167.399 49.614 167.3C48.7249 167.202 47.8255 167.327 46.9969 167.665C46.8223 167.746 46.6556 167.843 46.499 167.955L32.6055 176.124C33.4553 175.688 34.4083 175.496 35.3602 175.567C36.312 175.638 37.226 175.97 38.0023 176.527L101.881 213.587C104.517 215.316 106.607 217.764 107.904 220.644L121.845 212.04Z" class="color407BFF svgShape"/><path fill="#20b2aa" d="M110.04 300.482C110.04 303.705 109.012 305.945 107.39 306.928L121.187 298.871C122.986 297.904 124.126 295.552 124.126 292.184V220.933C124.058 217.832 123.278 214.788 121.845 212.039L107.904 220.643C109.242 223.312 109.972 226.245 110.04 229.231V300.482Z" class="color407BFF svgShape"/><path fill="#000" d="M121.845 212.04C120.553 209.283 118.517 206.944 115.967 205.289L52.0886 168.229C51.3535 167.718 50.503 167.399 49.614 167.3C48.7249 167.202 47.8255 167.327 46.9969 167.665C46.8223 167.746 46.6556 167.843 46.499 167.955L32.6055 176.124C33.4553 175.688 34.4083 175.496 35.3602 175.567C36.312 175.638 37.226 175.97 38.0023 176.527L101.881 213.587C104.517 215.316 106.607 217.764 107.904 220.644L121.845 212.04Z" class="color000 svgShape" opacity=".3"/><path fill="#000" d="M110.04 300.482C110.04 303.705 109.012 305.945 107.39 306.928L121.187 298.871C122.986 297.904 124.126 295.552 124.126 292.184V220.933C124.058 217.832 123.278 214.788 121.845 212.039L107.904 220.643C109.242 223.312 109.972 226.245 110.04 229.231V300.482Z" class="color000 svgShape" opacity=".6"/><path fill="#20b2aa" d="M91.3121 249.648C91.3121 258.88 87.6661 262.022 82.205 258.848C80.6985 257.988 79.3812 256.83 78.3323 255.446C77.2833 254.061 76.5245 252.478 76.1015 250.792C74.4953 252.773 72.0057 252.902 68.5042 250.872C62.754 247.537 58.2246 239.593 58.2246 231.875C58.2246 224.157 62.7058 221.498 68.5042 224.85C71.4465 226.589 73.8232 229.147 75.3466 232.213V229.168L81.4019 232.681V249.374C81.3117 250.252 81.4632 251.138 81.8398 251.937C82.2164 252.735 82.8038 253.414 83.5381 253.901C85.578 255.094 86.8308 253.08 86.8308 247.102C86.8308 236.644 80.1491 225.559 70.271 219.839C60.3929 214.119 53.7272 218.099 53.7272 228.862C53.8567 234.573 55.4254 240.159 58.2874 245.098C61.1493 250.037 65.2111 254.168 70.0943 257.108C72.7457 258.746 75.7566 259.709 78.8641 259.911L80.2936 265.47C76.6753 265.177 73.1788 264.023 70.0943 262.103C57.2448 254.642 48.748 239.625 48.748 226.026C48.748 212.427 57.3251 207.496 70.271 215.005C82.7832 222.24 91.3121 236.725 91.3121 249.648ZM75.4429 241.897C75.4742 239.854 74.9772 237.838 74.0004 236.045C73.0237 234.251 71.6004 232.743 69.8695 231.666C66.6571 229.78 64.3602 231.102 64.3602 235.484C64.3189 237.531 64.8042 239.553 65.7692 241.357C66.7343 243.16 68.1464 244.684 69.8695 245.78C73.0818 247.601 75.4429 246.425 75.4429 241.897Z" class="color407BFF svgShape"/><path fill="#fff" d="M91.3121 249.648C91.3121 258.88 87.6661 262.022 82.205 258.848C80.6985 257.988 79.3812 256.83 78.3323 255.446C77.2833 254.061 76.5245 252.478 76.1015 250.792C74.4953 252.773 72.0057 252.902 68.5042 250.872C62.754 247.537 58.2246 239.593 58.2246 231.875C58.2246 224.157 62.7058 221.498 68.5042 224.85C71.4465 226.589 73.8232 229.147 75.3466 232.213V229.168L81.4019 232.681V249.374C81.3117 250.252 81.4632 251.138 81.8398 251.937C82.2164 252.735 82.8038 253.414 83.5381 253.901C85.578 255.094 86.8308 253.08 86.8308 247.102C86.8308 236.644 80.1491 225.559 70.271 219.839C60.3929 214.119 53.7272 218.099 53.7272 228.862C53.8567 234.573 55.4254 240.159 58.2874 245.098C61.1493 250.037 65.2111 254.168 70.0943 257.108C72.7457 258.746 75.7566 259.709 78.8641 259.911L80.2936 265.47C76.6753 265.177 73.1788 264.023 70.0943 262.103C57.2448 254.642 48.748 239.625 48.748 226.026C48.748 212.427 57.3251 207.496 70.271 215.005C82.7832 222.24 91.3121 236.725 91.3121 249.648ZM75.4429 241.897C75.4742 239.854 74.9772 237.838 74.0004 236.045C73.0237 234.251 71.6004 232.743 69.8695 231.666C66.6571 229.78 64.3602 231.102 64.3602 235.484C64.3189 237.531 64.8042 239.553 65.7692 241.357C66.7343 243.16 68.1464 244.684 69.8695 245.78C73.0818 247.601 75.4429 246.425 75.4429 241.897Z" class="colorfff svgShape" opacity=".9"/><path fill="#20b2aa" d="M115.967 332.225L52.0885 295.166C51.3544 294.652 50.5029 294.332 49.6128 294.236C48.7227 294.141 47.8229 294.272 46.9969 294.618C46.8223 294.699 46.6556 294.796 46.499 294.908L32.6054 303.077H32.7018C30.951 304.076 29.8428 306.397 29.8428 309.7V380.951C29.8428 386.993 33.4888 393.986 38.0022 396.596L101.88 433.656C102.689 434.248 103.655 434.587 104.655 434.63C105.655 434.673 106.646 434.418 107.502 433.897L107.39 433.994L121.187 425.857C122.986 424.906 124.126 422.634 124.126 419.17V347.855C124.126 341.829 120.544 334.836 115.967 332.225Z" class="color407BFF svgShape"/><path fill="#20b2aa" d="M121.845 338.977C120.558 336.217 118.52 333.877 115.967 332.225L52.0886 295.166C51.3545 294.652 50.5029 294.332 49.6128 294.236C48.7228 294.141 47.823 294.272 46.9969 294.618C46.8223 294.699 46.6556 294.796 46.499 294.908L32.6055 303.077C33.4534 302.637 34.4059 302.441 35.3581 302.509C36.3103 302.577 37.2253 302.908 38.0023 303.464L101.881 340.523C104.521 342.255 106.612 344.71 107.904 347.597L121.845 338.977Z" class="color407BFF svgShape"/><path fill="#20b2aa" d="M110.04 427.404C110.04 430.626 109.012 432.866 107.39 433.929L121.187 425.792C122.986 424.842 124.126 422.57 124.126 419.106V347.855C124.058 344.759 123.278 341.72 121.845 338.977L107.904 347.581C109.242 350.243 109.972 353.172 110.04 356.153V427.404Z" class="color407BFF svgShape"/><path fill="#000" d="M121.845 338.977C120.558 336.217 118.52 333.877 115.967 332.225L52.0886 295.166C51.3545 294.652 50.5029 294.332 49.6128 294.236C48.7228 294.141 47.823 294.272 46.9969 294.618C46.8223 294.699 46.6556 294.796 46.499 294.908L32.6055 303.077C33.4534 302.637 34.4059 302.441 35.3581 302.509C36.3103 302.577 37.2253 302.908 38.0023 303.464L101.881 340.523C104.521 342.255 106.612 344.71 107.904 347.597L121.845 338.977Z" class="color000 svgShape" opacity=".3"/><path fill="#000" d="M110.04 427.404C110.04 430.626 109.012 432.866 107.39 433.929L121.187 425.792C122.986 424.842 124.126 422.57 124.126 419.106V347.855C124.058 344.759 123.278 341.72 121.845 338.977L107.904 347.581C109.242 350.243 109.972 353.172 110.04 356.153V427.404Z" class="color000 svgShape" opacity=".6"/><path fill="#20b2aa" d="M62.8018 364.08L47.3984 338.977V372.991L62.8018 364.08zM77.1133 371.316L92.4845 398.015V364.049L77.1133 371.316zM49.7275 337.833L65.5485 363.614C65.6155 363.67 65.6749 363.735 65.7252 363.807 65.7391 363.871 65.7391 363.937 65.7252 364L70.4313 371.67 74.4147 369.785C74.4767 369.717 74.5469 369.658 74.6235 369.608 74.7805 369.516 74.9562 369.46 75.1375 369.446L91.1994 361.889 49.7275 337.833z" class="color407BFF svgShape"/><path fill="#20b2aa" d="M74.7842 372.41L70.4796 374.441C70.3138 374.518 70.1325 374.557 69.9496 374.554C69.7279 374.556 69.5093 374.501 69.3151 374.394C69.1209 374.286 68.9577 374.131 68.8413 373.941L64.1351 366.271L48.6836 375.23L90.2679 399.303L74.7842 372.41Z" class="color407BFF svgShape"/><g fill="#000" class="color000 svgShape" opacity=".9"><path fill="#fff" d="M62.8018 364.08L47.3984 338.977V372.991L62.8018 364.08zM77.1133 371.317L92.4845 398.016V364.05L77.1133 371.317zM49.7275 337.833L65.5485 363.614C65.6155 363.67 65.6749 363.735 65.7252 363.807 65.7391 363.871 65.7391 363.937 65.7252 364L70.4313 371.67 74.4147 369.785C74.4767 369.717 74.5469 369.658 74.6235 369.608 74.7805 369.516 74.9562 369.46 75.1375 369.446L91.1994 361.889 49.7275 337.833z" class="colorfff svgShape" opacity=".9"/><path fill="#fff" d="M74.7842 372.411L70.4796 374.442C70.3138 374.519 70.1325 374.558 69.9496 374.554C69.7279 374.557 69.5093 374.502 69.3151 374.395C69.1209 374.287 68.9577 374.131 68.8413 373.942L64.1351 366.272L48.6836 375.231L90.2679 399.304L74.7842 372.411Z" class="colorfff svgShape" opacity=".9"/></g><path fill="#20b2aa" d="M115.967 78.4158L52.0885 41.3563C51.3544 40.8424 50.5029 40.5227 49.6128 40.4269C48.7227 40.3311 47.8229 40.4624 46.9969 40.8085C46.8223 40.8894 46.6556 40.9865 46.499 41.0985L32.6054 49.2677H32.7018C30.951 50.2506 29.8428 52.5869 29.8428 55.8901V127.141C29.8428 133.167 33.4888 140.176 38.0022 142.787L101.88 179.846C102.689 180.438 103.655 180.777 104.655 180.82C105.655 180.863 106.646 180.608 107.502 180.088L107.39 180.168L121.187 172.112C122.986 171.161 124.126 168.889 124.126 165.425V93.9969C124.126 87.9707 120.544 80.9616 115.967 78.4158Z" class="color407BFF svgShape"/><path fill="#20b2aa" d="M121.845 85.1188C120.558 82.3542 118.521 80.009 115.967 78.3514L52.0886 41.3563C51.3545 40.8424 50.5029 40.5227 49.6128 40.4269C48.7228 40.3311 47.823 40.4624 46.9969 40.8085C46.8223 40.8894 46.6556 40.9865 46.499 41.0985L32.6055 49.2677C33.4534 48.8278 34.4059 48.6312 35.3581 48.6994C36.3103 48.7676 37.2253 49.0981 38.0023 49.6544L101.881 86.7139C104.521 88.4455 106.612 90.9003 107.904 93.7874L121.845 85.1188Z" class="color407BFF svgShape"/><path fill="#20b2aa" d="M110.04 173.482C110.04 176.704 109.012 178.944 107.39 179.927L121.187 171.871C122.986 170.92 124.126 168.648 124.126 165.184V93.9973C124.058 90.9011 123.278 87.8627 121.845 85.1191L107.904 93.7234C109.242 96.3859 109.972 99.3143 110.04 102.295V173.482Z" class="color407BFF svgShape"/><path fill="#000" d="M121.845 85.1188C120.558 82.3542 118.521 80.009 115.967 78.3514L52.0886 41.3563C51.3545 40.8424 50.5029 40.5227 49.6128 40.4269C48.7228 40.3311 47.823 40.4624 46.9969 40.8085C46.8223 40.8894 46.6556 40.9865 46.499 41.0985L32.6055 49.2677C33.4534 48.8278 34.4059 48.6312 35.3581 48.6994C36.3103 48.7676 37.2253 49.0981 38.0023 49.6544L101.881 86.7139C104.521 88.4455 106.612 90.9003 107.904 93.7874L121.845 85.1188Z" class="color000 svgShape" opacity=".3"/><path fill="#000" d="M110.04 173.482C110.04 176.704 109.012 178.944 107.39 179.927L121.187 171.871C122.986 170.92 124.126 168.648 124.126 165.184V93.9973C124.058 90.9011 123.278 87.8627 121.845 85.1191L107.904 93.7234C109.242 96.3859 109.972 99.3143 110.04 102.295V173.482Z" class="color000 svgShape" opacity=".6"/><path fill="#20b2aa" d="M89.1432 142.867C86.6857 138.807 84.2122 134.811 81.7547 130.718 81.365 129.943 80.82 129.257 80.154 128.702 79.488 128.148 78.7152 127.737 77.8838 127.495 76.6952 127.254 75.5067 126.98 74.2859 126.625 73.8512 126.444 73.4855 126.127 73.2419 125.723 69.2207 118.819 66.0237 111.464 63.7172 103.81 63.6681 103.646 63.6542 103.474 63.6764 103.304 63.6985 103.135 63.7562 102.972 63.8457 102.827 64.6006 102.069 65.4519 101.377 66.2229 100.7 66.9938 100.023 67.3954 98.4601 66.8332 96.4299 65.6446 92.1278 64.5043 87.8257 63.3157 83.5397 63.0857 82.3219 62.54 81.1863 61.7336 80.2472 60.9272 79.3081 59.8885 78.5987 58.722 78.1902 56.1318 77.4678 53.382 77.5691 50.8516 78.4802 49.8718 78.8508 49.3579 79.737 49.3418 81.2677 49.7594 84.2164 50.0325 87.1328 50.5946 90.1298 54.5566 111.742 64.0866 131.615 79.1848 149.747 79.579 150.349 80.1085 150.848 80.7307 151.207 81.3529 151.565 82.0503 151.772 82.7666 151.81 85.2663 151.75 87.6677 150.822 89.5608 149.183 90.9903 147.894 90.8458 145.606 89.1432 142.867zM88.951 120.905C88.615 116.27 87.3417 111.753 85.2086 107.628 83.616 104.405 81.5893 101.418 79.1854 98.7497 78.559 98.0407 78.0289 97.8151 77.7077 98.3469 77.3865 98.8786 77.7077 99.6359 78.3181 100.329L78.9445 101.054C83.384 106.195 86.1818 112.555 86.9754 119.31 86.9676 119.802 87.0161 120.294 87.12 120.776 87.3217 121.33 87.6457 121.831 88.0676 122.242 88.4049 122.484 88.7904 122.242 89.0635 122.242 88.9671 121.582 88.9832 121.243 88.951 120.905zM74.3987 107.677C76.4157 109.902 77.6413 112.735 77.8841 115.733 77.9899 116.189 78.1574 116.628 78.382 117.038 79.3618 117.844 79.8437 117.57 79.8437 116.555 79.5002 112.711 77.9155 109.085 75.3303 106.227 74.7199 105.598 74.222 105.405 73.9329 105.937 73.8289 106.24 73.8177 106.568 73.9007 106.878 73.9836 107.188 74.1571 107.466 74.3987 107.677z" class="color407BFF svgShape"/><g fill="#000" class="color000 svgShape" opacity=".9"><path fill="#fff" d="M89.1432 142.867C86.6857 138.807 84.2122 134.811 81.7547 130.718 81.365 129.943 80.82 129.257 80.154 128.702 79.488 128.148 78.7152 127.737 77.8838 127.495 76.6952 127.254 75.5067 126.98 74.2859 126.625 73.8512 126.444 73.4855 126.127 73.2419 125.723 69.2207 118.819 66.0237 111.464 63.7172 103.81 63.6681 103.646 63.6542 103.474 63.6764 103.304 63.6985 103.135 63.7562 102.972 63.8457 102.827 64.6006 102.069 65.4519 101.377 66.2229 100.7 66.9938 100.023 67.3954 98.4601 66.8332 96.4299 65.6446 92.1278 64.5043 87.8257 63.3157 83.5397 63.0857 82.3219 62.54 81.1863 61.7336 80.2472 60.9272 79.3081 59.8885 78.5987 58.722 78.1902 56.1318 77.4678 53.382 77.5691 50.8516 78.4802 49.8718 78.8508 49.3579 79.737 49.3418 81.2677 49.7594 84.2164 50.0325 87.1328 50.5946 90.1298 54.5566 111.742 64.0866 131.615 79.1848 149.747 79.579 150.349 80.1085 150.848 80.7307 151.207 81.3529 151.565 82.0503 151.772 82.7666 151.81 85.2663 151.75 87.6677 150.822 89.5608 149.183 90.9903 147.894 90.8458 145.606 89.1432 142.867zM88.951 120.905C88.615 116.27 87.3417 111.753 85.2086 107.628 83.616 104.405 81.5893 101.418 79.1854 98.7497 78.559 98.0407 78.0289 97.8151 77.7077 98.3469 77.3865 98.8786 77.7077 99.6359 78.3181 100.329L78.9445 101.054C83.384 106.195 86.1818 112.555 86.9754 119.31 86.9676 119.802 87.0161 120.294 87.12 120.776 87.3217 121.33 87.6457 121.831 88.0676 122.242 88.4049 122.484 88.7904 122.242 89.0635 122.242 88.9671 121.582 88.9832 121.243 88.951 120.905zM74.3987 107.677C76.4157 109.902 77.6413 112.735 77.8841 115.733 77.9899 116.189 78.1574 116.628 78.382 117.038 79.3618 117.844 79.8437 117.57 79.8437 116.555 79.5002 112.711 77.9155 109.085 75.3303 106.227 74.7199 105.598 74.222 105.405 73.9329 105.937 73.8289 106.24 73.8177 106.568 73.9007 106.878 73.9836 107.188 74.1571 107.466 74.3987 107.677z" class="colorfff svgShape" opacity=".9"/></g><path fill="#e6e6e6" d="M443.71 35.6841L458.76 44.2722V38.9227C458.76 38.5521 458.76 38.1654 458.76 37.7948C458.76 37.4242 458.76 37.0698 458.76 36.7153V36.5219C459.306 29.4484 464.655 26.7253 471.176 30.5118C474.128 32.3335 476.658 34.7672 478.597 37.6498C480.058 27.9821 487.88 24.5662 497.341 30.0285C507.845 36.1191 516.358 50.9751 516.358 63.092V74.5321C516.343 75.4472 516.568 76.3502 517.011 77.1505C517.453 77.9509 518.098 78.6204 518.88 79.092L527.746 84.2965C529.66 85.4346 531.246 87.0515 532.349 88.989C533.453 90.9265 534.036 93.1183 534.042 95.3499C534.043 96.2757 533.8 97.1852 533.338 97.9869C532.877 98.7886 532.212 99.4541 531.413 99.9164C530.613 100.379 529.706 100.622 528.784 100.62C527.861 100.619 526.954 100.374 526.156 99.9098L443.935 52.2319C441.754 50.9612 439.942 49.14 438.68 46.9493C437.417 44.7587 436.748 42.2748 436.739 39.7445C436.738 38.9255 436.952 38.1206 437.359 37.4106C437.766 36.7006 438.352 36.1104 439.058 35.6991C439.764 35.2878 440.566 35.07 441.382 35.0673C442.199 35.0647 443.001 35.2774 443.71 35.6841Z" class="colorE6E6E6 svgShape"/><path fill="#b0f1ee" d="M443.71 35.6841L458.76 44.2722V38.9227C458.76 38.5521 458.76 38.1654 458.76 37.7948C458.76 37.4242 458.76 37.0698 458.76 36.7153V36.5219C459.306 29.4484 464.655 26.7253 471.176 30.5118C474.128 32.3335 476.658 34.7672 478.597 37.6498C480.058 27.9821 487.88 24.5662 497.341 30.0285C507.845 36.1191 516.358 50.9751 516.358 63.092V74.5321C516.343 75.4472 516.568 76.3502 517.011 77.1505C517.453 77.9509 518.098 78.6204 518.88 79.092L527.746 84.2965C529.66 85.4346 531.246 87.0515 532.349 88.989C533.453 90.9265 534.036 93.1183 534.042 95.3499C534.043 96.2757 533.8 97.1852 533.338 97.9869C532.877 98.7886 532.212 99.4541 531.413 99.9164C530.613 100.379 529.706 100.622 528.784 100.62C527.861 100.619 526.954 100.374 526.156 99.9098L443.935 52.2319C441.754 50.9612 439.942 49.14 438.68 46.9493C437.417 44.7587 436.748 42.2748 436.739 39.7445C436.738 38.9255 436.952 38.1206 437.359 37.4106C437.766 36.7006 438.352 36.1104 439.058 35.6991C439.764 35.2878 440.566 35.07 441.382 35.0673C442.199 35.0647 443.001 35.2774 443.71 35.6841Z" class="colorC1D3FE svgShape"/><path fill="#e6e6e6" d="M558.44 33.4451L569.379 39.7452V35.8137C569.379 35.5397 569.379 35.2658 569.379 34.9919C569.379 34.718 569.379 34.4602 569.379 34.2024V34.1057C569.78 28.9657 573.667 26.9838 578.405 29.7391C580.551 31.058 582.391 32.8214 583.802 34.9113C584.878 27.9184 590.564 25.3887 597.439 29.3685C605.084 33.7996 611.268 44.5629 611.268 53.4089V61.7392C611.274 62.3922 611.448 63.0325 611.775 63.5974C612.102 64.1624 612.569 64.6325 613.131 64.9618L619.556 68.7483C620.954 69.573 622.112 70.7508 622.915 72.1643C623.718 73.5778 624.139 75.1777 624.134 76.8047C624.133 77.4711 623.958 78.1257 623.628 78.704C623.298 79.2823 622.824 79.7643 622.252 80.1026C621.679 80.4409 621.029 80.6238 620.365 80.6332C619.7 80.6426 619.045 80.4782 618.464 80.1562L558.601 45.4814C557.015 44.5608 555.698 43.2381 554.781 41.646C553.865 40.0539 553.382 38.2482 553.381 36.4098C553.38 35.8148 553.534 35.23 553.829 34.7136C554.124 34.1973 554.548 33.7676 555.061 33.4675C555.573 33.1674 556.154 33.0074 556.747 33.0035C557.341 32.9995 557.924 33.1518 558.44 33.4451Z" class="colorE6E6E6 svgShape"/><path fill="#b0f1ee" d="M558.44 33.4451L569.379 39.7452V35.8137C569.379 35.5397 569.379 35.2658 569.379 34.9919C569.379 34.718 569.379 34.4602 569.379 34.2024V34.1057C569.78 28.9657 573.667 26.9838 578.405 29.7391C580.551 31.058 582.391 32.8214 583.802 34.9113C584.878 27.9184 590.564 25.3887 597.439 29.3685C605.084 33.7996 611.268 44.5629 611.268 53.4089V61.7392C611.274 62.3922 611.448 63.0325 611.775 63.5974C612.102 64.1624 612.569 64.6325 613.131 64.9618L619.556 68.7483C620.954 69.573 622.112 70.7508 622.915 72.1643C623.718 73.5778 624.139 75.1777 624.134 76.8047C624.133 77.4711 623.958 78.1257 623.628 78.704C623.298 79.2823 622.824 79.7643 622.252 80.1026C621.679 80.4409 621.029 80.6238 620.365 80.6332C619.7 80.6426 619.045 80.4782 618.464 80.1562L558.601 45.4814C557.015 44.5608 555.698 43.2381 554.781 41.646C553.865 40.0539 553.382 38.2482 553.381 36.4098C553.38 35.8148 553.534 35.23 553.829 34.7136C554.124 34.1973 554.548 33.7676 555.061 33.4675C555.573 33.1674 556.154 33.0074 556.747 33.0035C557.341 32.9995 557.924 33.1518 558.44 33.4451Z" class="colorC1D3FE svgShape"/></svg></svg>